<svg width="187" height="67" viewBox="0 0 187 67" fill="none" xmlns="http://www.w3.org/2000/svg">
<g clip-path="url(#clip0_186_100930)">
<path d="M37.1319 13.8135L37.0782 13.3267L36.649 13.4349C35.0392 13.8675 33.4295 14.0839 31.8734 14.0839C27.9026 14.0839 24.6295 12.7859 22.5904 11.7042C20.3904 10.5143 19.1026 9.27042 19.1026 9.27042L18.8343 9L18.566 9.27042C18.566 9.27042 17.2782 10.5143 15.0782 11.7042C13.0392 12.7859 9.8197 14.138 5.84897 14.138C4.23922 14.138 2.62946 13.9216 1.07336 13.489L0.590436 13.3808L0.536777 13.8135C0.536777 13.8675 -0.160784 19.1137 0.000191849 25.4415C0.107509 29.1733 0.483119 32.5265 1.07336 35.3929C1.82458 39.0166 2.95141 41.9912 4.50751 44.1004C7.56604 48.4272 11.2685 51.9426 13.7904 54.106C16.527 56.4856 18.6197 57.8377 18.6197 57.8377L18.8343 58L19.049 57.8377C19.049 57.8377 21.1417 56.4316 23.8782 54.106C26.4002 51.9426 30.1026 48.4272 33.1612 44.1004C34.6636 41.9912 35.8441 39.0166 36.5953 35.3929C37.1856 32.5265 37.5612 29.1733 37.6148 25.4415C37.7758 19.1137 37.1319 13.8675 37.1319 13.8135ZM31.9807 14.5166C32.0343 14.5166 32.0343 14.5166 32.088 14.5166C32.0343 14.5166 32.0343 14.5166 31.9807 14.5166ZM36.2734 13.9757C36.2197 13.9757 36.2197 13.9757 36.166 13.9757C36.2197 13.9757 36.2734 13.9757 36.2734 13.9757ZM35.3075 14.1921C35.2538 14.1921 35.2538 14.1921 35.2002 14.1921C35.2538 14.1921 35.3075 14.1921 35.3075 14.1921ZM34.8246 14.3002H34.7709C34.7709 14.3002 34.7709 14.3002 34.8246 14.3002ZM34.3953 14.3543C34.3417 14.3543 34.3417 14.3543 34.288 14.3543C34.288 14.3543 34.3417 14.3543 34.3953 14.3543ZM33.8587 14.4084H33.8051H33.8587ZM33.4295 14.4625C33.3758 14.4625 33.3758 14.4625 33.3221 14.4625C33.3758 14.4625 33.4295 14.4625 33.4295 14.4625ZM32.9465 14.4625H32.8929H32.9465ZM32.5173 14.5166C32.4636 14.5166 32.4636 14.5166 32.4099 14.5166C32.4636 14.5166 32.5173 14.5166 32.5173 14.5166ZM31.7124 14.5166C31.6587 14.5166 31.6051 14.5166 31.5514 14.5166C31.6051 14.5166 31.6587 14.5166 31.7124 14.5166ZM31.2831 14.5166C31.2295 14.5166 31.1758 14.5166 31.1758 14.5166C31.1758 14.5166 31.2295 14.5166 31.2831 14.5166ZM30.3709 14.4625C30.3173 14.4625 30.2636 14.4625 30.2636 14.4625C30.2636 14.4625 30.3173 14.4625 30.3709 14.4625ZM29.9417 14.4084C29.888 14.4084 29.8343 14.4084 29.7807 14.4084C29.888 14.4084 29.9417 14.4084 29.9417 14.4084ZM29.566 14.3543C29.5124 14.3543 29.4587 14.3543 29.4051 14.3543C29.4587 14.3543 29.5124 14.3543 29.566 14.3543ZM29.1904 14.3002C29.1368 14.3002 29.1368 14.3002 29.0831 14.3002C29.0831 14.3002 29.1368 14.3002 29.1904 14.3002ZM28.3319 14.1921C28.2782 14.1921 28.2782 14.1921 28.2246 14.1921C28.2782 14.1921 28.2782 14.1921 28.3319 14.1921ZM27.9563 14.138C27.9026 14.138 27.849 14.138 27.849 14.0839C27.9026 14.0839 27.9026 14.0839 27.9563 14.138ZM27.6343 14.0298C27.5807 14.0298 27.527 14.0298 27.527 13.9757C27.527 14.0298 27.5807 14.0298 27.6343 14.0298ZM27.2587 13.9216C27.2051 13.9216 27.2051 13.9216 27.1514 13.8675C27.1514 13.9216 27.2051 13.9216 27.2587 13.9216ZM26.4538 13.7594C26.4002 13.7594 26.4002 13.7594 26.3465 13.7053C26.4002 13.7053 26.4538 13.7053 26.4538 13.7594ZM26.1319 13.6512C26.0782 13.6512 26.0782 13.6512 26.0246 13.5971C26.0782 13.5971 26.0782 13.5971 26.1319 13.6512ZM25.8099 13.543C25.7563 13.543 25.7563 13.543 25.7026 13.489C25.7563 13.489 25.7563 13.489 25.8099 13.543ZM25.488 13.4349C25.4343 13.4349 25.4343 13.4349 25.3807 13.3808C25.4343 13.3808 25.4343 13.3808 25.488 13.4349ZM24.7904 13.1645C24.7368 13.1645 24.7368 13.1645 24.6831 13.1104C24.7368 13.1104 24.7368 13.1645 24.7904 13.1645ZM24.4685 13.0563C24.4148 13.0563 24.4148 13.0022 24.3612 13.0022C24.4148 13.0022 24.4685 13.0022 24.4685 13.0563ZM24.2002 12.894C24.1465 12.894 24.1465 12.84 24.0929 12.84C24.0929 12.894 24.1465 12.894 24.2002 12.894ZM23.8782 12.7859C23.8246 12.7859 23.8246 12.7318 23.7709 12.7318C23.8246 12.7318 23.8782 12.7859 23.8782 12.7859ZM23.288 12.5155C23.288 12.5155 23.2343 12.5155 23.2343 12.4614C23.2343 12.4614 23.2343 12.4614 23.288 12.5155ZM23.0197 12.3532C22.966 12.3532 22.966 12.2991 22.9124 12.2991C22.966 12.3532 22.966 12.3532 23.0197 12.3532ZM22.7514 12.245C22.6978 12.245 22.6978 12.1909 22.6441 12.1909C22.6978 12.1909 22.7514 12.245 22.7514 12.245ZM22.4831 12.0828C22.4295 12.0828 22.4295 12.0287 22.3758 12.0287C22.4295 12.0828 22.4831 12.0828 22.4831 12.0828ZM22.2148 11.9746C22.2148 11.9205 22.2148 11.9205 22.2148 11.9746C22.2148 11.9205 22.2148 11.9205 22.2148 11.9746ZM21.9465 11.8124C21.9465 11.8124 21.8929 11.8124 21.8929 11.7583C21.9465 11.7583 21.9465 11.8124 21.9465 11.8124ZM21.7319 11.6501L21.6782 11.596C21.6782 11.6501 21.7319 11.6501 21.7319 11.6501ZM21.5173 11.5419L21.4636 11.4879L21.5173 11.5419ZM21.3026 11.4338L21.249 11.3797C21.249 11.3797 21.3026 11.3797 21.3026 11.4338ZM20.8734 11.1093C20.8734 11.1093 20.8197 11.1093 20.8734 11.1093C20.8197 11.1093 20.8734 11.1093 20.8734 11.1093ZM20.6587 11.0011L20.6051 10.947C20.6587 11.0011 20.6587 11.0011 20.6587 11.0011ZM20.4978 10.8929L20.4441 10.8389L20.4978 10.8929ZM20.3368 10.7848C20.3368 10.7848 20.2831 10.7848 20.2831 10.7307C20.2831 10.7307 20.3368 10.7307 20.3368 10.7848ZM20.1758 10.6225C20.1758 10.6225 20.1221 10.6225 20.1758 10.6225C20.1221 10.6225 20.1758 10.6225 20.1758 10.6225ZM19.8538 10.4062C19.8538 10.4062 19.8002 10.4062 19.8538 10.4062C19.8002 10.4062 19.8538 10.4062 19.8538 10.4062ZM19.4782 10.1358C19.4782 10.1358 19.4782 10.0817 19.4782 10.1358C19.4782 10.0817 19.4782 10.1358 19.4782 10.1358ZM19.3709 10.0276C19.3173 10.0276 19.3173 10.0276 19.3709 10.0276C19.3173 10.0276 19.3173 10.0276 19.3709 10.0276ZM19.2636 9.91943C19.2636 9.91943 19.2099 9.91943 19.2636 9.91943C19.2099 9.91943 19.2636 9.91943 19.2636 9.91943ZM18.566 9.75717C18.566 9.81126 18.566 9.81126 18.566 9.75717C18.566 9.81126 18.566 9.81126 18.566 9.75717ZM18.727 9.64901C18.6734 9.70309 18.6734 9.70309 18.727 9.64901C18.6734 9.70309 18.6734 9.70309 18.727 9.64901ZM18.6197 9.70309C18.6197 9.75717 18.6197 9.75717 18.6197 9.70309C18.6197 9.75717 18.6197 9.75717 18.6197 9.70309ZM5.58068 14.5166C5.63434 14.5166 5.63434 14.5166 5.688 14.5166C5.63434 14.5166 5.58068 14.5166 5.58068 14.5166ZM18.5124 9.86534C18.5124 9.86534 18.4587 9.86534 18.5124 9.86534C18.4587 9.86534 18.5124 9.86534 18.5124 9.86534ZM18.3514 9.97351C18.2978 10.0276 18.2441 10.0276 18.2441 10.0817C18.2441 10.0276 18.2978 10.0276 18.3514 9.97351ZM18.1904 10.0817L18.1368 10.1358L18.1904 10.0817ZM18.0831 10.1898L18.0295 10.2439C18.0295 10.1898 18.0831 10.1898 18.0831 10.1898ZM17.9758 10.2439L17.9221 10.298C17.9221 10.298 17.9758 10.298 17.9758 10.2439ZM17.8685 10.3521L17.8148 10.4062C17.8148 10.4062 17.8148 10.3521 17.8685 10.3521ZM17.7075 10.4603C17.6002 10.5143 17.4929 10.6225 17.3856 10.6766C17.5465 10.6225 17.6538 10.5143 17.7075 10.4603ZM17.3856 10.7307C17.3319 10.7307 17.3319 10.7848 17.2782 10.7848C17.2782 10.7848 17.3319 10.7307 17.3856 10.7307ZM17.2246 10.8389C17.1709 10.8389 17.1709 10.8929 17.1173 10.8929C17.1173 10.8929 17.1709 10.8389 17.2246 10.8389ZM17.0636 10.947C17.0099 10.947 17.0099 11.0011 16.9563 11.0011C16.9563 11.0011 17.0099 10.947 17.0636 10.947ZM16.9026 11.0552C16.7417 11.1634 16.6343 11.2174 16.4734 11.3256C16.6343 11.2174 16.7417 11.1634 16.9026 11.0552ZM16.4197 11.3797C16.366 11.3797 16.366 11.4338 16.3124 11.4338C16.3124 11.4338 16.366 11.3797 16.4197 11.3797ZM16.2051 11.4879C16.1514 11.4879 16.1514 11.5419 16.0978 11.5419C16.1514 11.5419 16.1514 11.4879 16.2051 11.4879ZM15.9904 11.596C15.9368 11.596 15.8831 11.6501 15.8831 11.6501C15.9368 11.6501 15.9904 11.6501 15.9904 11.596ZM15.7758 11.7042C15.6148 11.8124 15.4538 11.8664 15.2929 11.9746C15.5075 11.9205 15.6685 11.8124 15.7758 11.7042ZM15.2392 12.0287C15.1856 12.0287 15.1319 12.0828 15.0782 12.0828C15.1319 12.0828 15.1856 12.0828 15.2392 12.0287ZM14.9709 12.1909C14.9173 12.1909 14.8636 12.245 14.8099 12.245C14.9173 12.245 14.9709 12.1909 14.9709 12.1909ZM14.7563 12.2991C14.7026 12.2991 14.649 12.3532 14.5953 12.3532C14.649 12.3532 14.7026 12.2991 14.7563 12.2991ZM14.488 12.4073C14.4343 12.4073 14.3807 12.4614 14.327 12.4614C14.3807 12.4614 14.4343 12.4614 14.488 12.4073ZM14.2197 12.5695C14.1124 12.6236 14.0587 12.6236 13.9514 12.6777C14.0587 12.6236 14.166 12.6236 14.2197 12.5695ZM13.8441 12.7318C13.7904 12.7318 13.7368 12.7859 13.6831 12.7859C13.7368 12.7859 13.7904 12.7318 13.8441 12.7318ZM13.5758 12.84C13.5221 12.84 13.4685 12.894 13.4148 12.894C13.4685 12.894 13.5221 12.894 13.5758 12.84ZM13.3075 13.0022C13.2538 13.0022 13.2002 13.0563 13.1465 13.0563C13.2002 13.0022 13.2538 13.0022 13.3075 13.0022ZM12.9856 13.1104C12.9319 13.1104 12.8782 13.1645 12.8246 13.1645C12.8782 13.1645 12.9319 13.1104 12.9856 13.1104ZM12.6099 13.2185C12.5563 13.2185 12.5026 13.2726 12.449 13.2726C12.5026 13.2726 12.5563 13.2726 12.6099 13.2185ZM12.288 13.3808C12.2343 13.3808 12.1807 13.4349 12.127 13.4349C12.1807 13.4349 12.2343 13.3808 12.288 13.3808ZM11.966 13.489C11.9124 13.489 11.8587 13.543 11.8051 13.543C11.8587 13.543 11.9124 13.489 11.966 13.489ZM11.6441 13.5971C11.5904 13.5971 11.5368 13.6512 11.4831 13.6512C11.5368 13.5971 11.5904 13.5971 11.6441 13.5971ZM11.3221 13.7053C11.2685 13.7053 11.2148 13.7594 11.1612 13.7594C11.2148 13.7053 11.2685 13.7053 11.3221 13.7053ZM10.8929 13.8135C10.8392 13.8135 10.8392 13.8135 10.7856 13.8675C10.7856 13.8135 10.8392 13.8135 10.8929 13.8135ZM10.5173 13.9216C10.4636 13.9216 10.4099 13.9216 10.3563 13.9757C10.4099 13.9216 10.4636 13.9216 10.5173 13.9216ZM10.1417 13.9757C10.088 13.9757 10.0343 13.9757 9.98068 14.0298C10.088 14.0298 10.088 14.0298 10.1417 13.9757ZM9.8197 14.0839C9.76604 14.0839 9.71239 14.0839 9.65873 14.138C9.71239 14.0839 9.76604 14.0839 9.8197 14.0839ZM9.44409 14.138C9.39044 14.138 9.33678 14.138 9.33678 14.138C9.33678 14.1921 9.39044 14.1921 9.44409 14.138ZM8.96117 14.2461H8.90751C8.96117 14.2461 8.96117 14.2461 8.96117 14.2461ZM8.58556 14.3002C8.5319 14.3002 8.47824 14.3002 8.47824 14.3002C8.47824 14.3002 8.5319 14.3002 8.58556 14.3002ZM8.20995 14.3543C8.15629 14.3543 8.10263 14.3543 8.04897 14.3543C8.10263 14.3543 8.15629 14.3543 8.20995 14.3543ZM7.83434 14.4084C7.78068 14.4084 7.72702 14.4084 7.67336 14.4084C7.72702 14.4084 7.78068 14.4084 7.83434 14.4084ZM7.40507 14.4625C7.35141 14.4625 7.29775 14.4625 7.29775 14.4625C7.35141 14.4625 7.35141 14.4625 7.40507 14.4625ZM6.49287 14.5166C6.43922 14.5166 6.38556 14.5166 6.38556 14.5166C6.38556 14.5166 6.43922 14.5166 6.49287 14.5166ZM6.11726 14.5166C6.06361 14.5166 6.00995 14.5166 5.95629 14.5166C6.00995 14.5166 6.06361 14.5166 6.11726 14.5166ZM5.15141 14.5166H5.09775H5.15141ZM4.72214 14.4625H4.66848C4.72214 14.4625 4.72214 14.4625 4.72214 14.4625ZM4.29287 14.4625C4.23922 14.4625 4.23922 14.4625 4.18556 14.4625C4.23922 14.4625 4.23922 14.4625 4.29287 14.4625ZM3.80995 14.4084H3.75629C3.80995 14.4084 3.80995 14.4084 3.80995 14.4084ZM3.32702 14.3543C3.27336 14.3543 3.27336 14.3543 3.2197 14.3543C3.27336 14.3543 3.32702 14.3543 3.32702 14.3543ZM2.89775 14.3002C2.84409 14.3002 2.84409 14.3002 2.89775 14.3002C2.84409 14.3002 2.84409 14.3002 2.89775 14.3002ZM2.41483 14.1921C2.36117 14.1921 2.36117 14.1921 2.30751 14.1921C2.36117 14.1921 2.36117 14.1921 2.41483 14.1921ZM1.9319 14.0839C1.87824 14.0839 1.87824 14.0839 1.9319 14.0839C1.87824 14.0839 1.87824 14.0839 1.9319 14.0839ZM1.44897 14.0298C1.39531 14.0298 1.39531 14.0298 1.34166 14.0298C1.39531 13.9757 1.39531 13.9757 1.44897 14.0298ZM19.4782 57.0265C19.5319 56.9724 19.6392 56.9183 19.7465 56.8642C19.6392 56.9183 19.5856 56.9724 19.4782 57.0265ZM21.4636 55.5662C21.6246 55.4581 21.7319 55.3499 21.8929 55.2417C21.7856 55.2958 21.6246 55.404 21.4636 55.5662ZM22.1612 55.0254C22.3758 54.8631 22.6441 54.6468 22.8587 54.4305C22.5904 54.6468 22.3758 54.809 22.1612 55.0254ZM24.1465 53.3488C23.8782 53.5651 23.6099 53.8355 23.3417 54.0519C23.6099 53.7815 23.8782 53.5651 24.1465 53.3488C24.3075 53.1865 24.5221 53.0243 24.6831 52.862C24.5221 53.0243 24.3075 53.1865 24.1465 53.3488ZM25.2197 52.3212C25.3807 52.1589 25.5953 51.9967 25.8099 51.7803C25.5953 51.9967 25.4343 52.1589 25.2197 52.3212ZM26.4002 51.2395C26.6148 51.0773 26.7758 50.8609 26.9904 50.6446C26.7758 50.8609 26.5612 51.0773 26.4002 51.2395ZM27.2587 50.3742C27.4734 50.1578 27.6343 49.9956 27.849 49.7792C27.6343 49.9956 27.4734 50.2119 27.2587 50.3742ZM29.6197 47.8322C29.9417 47.5077 30.2099 47.1291 30.5319 46.8046C30.2099 47.1832 29.9417 47.5077 29.6197 47.8322Z" fill="url(#paint0_linear_186_100930)"/>
<path d="M18.8342 11.1635C19.4781 11.6503 20.4977 12.4075 21.8391 13.1106C24.0391 14.3004 27.5269 15.7066 31.8733 15.7066C33.1611 15.7066 34.4489 15.5984 35.683 15.328C35.844 17.275 36.1123 21.0609 36.005 25.3876C35.7903 33.4461 34.3416 39.5576 31.8733 43.073C28.922 47.2375 25.3806 50.6448 22.9123 52.754C21.1416 54.2684 19.6391 55.4042 18.8342 55.945C16.7952 54.4847 10.5172 49.7253 5.79521 43.073C3.27326 39.6117 1.82448 33.5002 1.60985 25.4417C1.50253 21.115 1.77082 17.3291 1.9318 15.3821C3.2196 15.6525 4.50741 15.7607 5.74156 15.7607C10.0342 15.7607 13.5757 14.3545 15.7757 13.1646C17.1708 12.4075 18.1903 11.6503 18.8342 11.1635ZM18.8342 9.54102C18.8342 9.54102 13.6294 14.5167 5.79521 14.5167C4.29278 14.5167 2.62936 14.3004 0.912287 13.8677C0.912287 13.8677 -1.66332 34.69 4.82936 43.8302C10.7318 52.105 18.8342 57.4593 18.8342 57.4593C18.8342 57.4593 26.9367 52.105 32.8391 43.8302C39.3318 34.69 36.7025 13.8677 36.7025 13.8677C34.9855 14.3004 33.322 14.5167 31.8196 14.5167C23.9855 14.5167 18.8342 9.54102 18.8342 9.54102Z" fill="#D2A951"/>
<path opacity="0.12" d="M33.8589 27.1181C32.0345 29.3897 30.4784 29.6601 30.4784 29.6601C33.8589 26.5773 33.5906 23.2782 33.5906 23.2782C32.5711 26.4691 30.1028 28.1998 30.1028 28.1998C30.1028 28.1998 32.0882 25.712 32.3028 23.6568C32.6784 19.9791 30.9077 18.9515 30.9077 18.9515C31.3906 19.5464 32.0345 22.521 30.9077 24.7925C29.7809 27.0641 25.7028 29.0111 23.6101 30.1468C21.5175 31.2826 19.8004 33.0133 19.8004 33.0133C20.176 32.4184 20.176 31.6612 20.176 31.6612C19.854 32.2561 18.9955 32.9051 18.9955 32.9051C19.8004 31.6612 20.176 29.9305 20.176 29.9305C19.6931 31.0663 18.6735 31.6612 18.6735 31.6612C19.3711 30.0387 19.3711 28.0917 19.3711 28.0917C18.9955 29.5519 17.976 30.5795 17.976 30.5795C18.3516 29.1193 18.2979 26.4691 18.2979 26.4691C17.976 28.0917 17.1711 29.2274 17.1711 29.2274C17.5467 27.2804 17.2784 24.6303 17.2784 24.6303C17.0638 26.2528 16.2589 27.7131 16.2589 27.7131C16.2589 24.7385 15.6687 22.8996 15.6687 22.8996C15.6687 24.0354 15.1857 26.1987 15.1857 26.1987C14.8638 23.6568 13.7906 21.1689 13.7906 21.1689C14.0053 22.4129 13.6833 24.0354 13.6833 24.0354C12.9857 21.7638 11.376 19.3301 11.376 19.3301C11.8589 20.4658 11.8589 22.8455 11.8589 22.8455C11.376 21.4934 10.3565 20.3577 10.3565 20.3577C10.6784 21.0608 10.5711 21.6016 10.5711 21.6016C9.44428 19.6546 7.88818 18.4106 7.88818 18.4106C12.1809 24.6844 10.3565 30.6877 9.71257 31.8234C9.12233 32.9592 9.92721 33.0674 10.3028 32.9592C10.6784 32.851 13.415 31.4449 13.8979 33.3919C14.3809 35.3389 12.5028 35.9338 10.0882 36.7992C7.67355 37.6104 8.37111 39.8819 8.37111 39.8819C8.37111 39.8819 7.9955 40.3146 7.9955 40.9095C7.9955 42.1535 9.60526 42.3698 9.60526 42.3698C9.28331 41.7749 9.60526 41.1259 9.60526 41.1259C9.76623 40.7473 11.2687 40.585 11.8589 40.585C12.4492 40.585 12.9857 41.18 14.9711 42.0453C16.9565 42.8566 19.1565 42.0453 19.2638 42.1535C19.3711 42.2616 19.4248 42.8025 19.4248 42.8025C19.4248 42.8025 18.3516 42.9106 18.3516 43.9923C18.4053 45.3985 19.4248 45.1822 19.4248 45.1822C19.1028 44.8577 19.3175 44.6954 19.3175 44.6954C19.9077 45.2903 20.3906 44.425 20.3906 44.425C20.3906 44.425 19.8004 44.6413 19.8004 43.9923C19.8004 43.3433 20.176 43.3974 20.2833 43.5596C20.3906 43.776 20.176 44.0464 20.176 44.0464C20.176 44.0464 20.6589 44.0464 20.7662 43.5596C20.8736 43.0729 20.3906 43.0729 20.3906 43.0729C20.2833 42.8566 20.6053 42.2616 20.7662 42.1535C20.9809 42.0453 21.8931 42.5861 22.2687 42.8566C22.6443 43.1811 22.5906 43.776 22.5906 43.776C22.5906 43.776 22.4833 43.776 22.1077 43.9923C21.8394 44.1546 21.5711 44.3709 21.4638 44.8577C21.3565 44.9658 21.3028 45.1281 21.3565 45.3985C21.3565 45.4526 21.4101 45.5067 21.4101 45.5607C21.4638 46.4261 22.3223 46.372 22.3223 46.372C22.1614 46.2638 22.054 46.1016 22.0004 45.9934C22.1614 45.9934 22.3223 45.9393 22.4296 45.723C22.4296 45.723 22.1614 45.8312 22.0004 45.5067C22.054 45.3444 22.1614 45.1822 22.1614 45.1822C22.4296 44.9117 22.8053 44.8036 22.8053 44.8036C22.8053 44.8036 22.6443 45.8853 23.3418 46.1016C24.0394 46.3179 24.3077 45.6689 24.3077 45.6689C24.3077 45.6689 23.9321 45.7771 23.7175 45.6689C23.5028 45.5608 23.5028 44.2087 23.8248 44.2087C24.1467 44.2087 24.1467 45.0199 24.1467 45.0199C24.5223 44.5332 24.6296 43.8842 24.1467 43.776C23.6638 43.6678 23.4492 42.9647 23.4492 42.9647C23.5565 43.1811 24.1467 43.0729 24.1467 43.0729C23.9321 42.9647 24.0394 42.1535 24.0394 42.1535C24.254 42.3698 24.737 42.2616 24.737 42.2616C24.737 42.2616 24.254 41.7749 24.5223 40.9095C25.0053 39.6115 27.9028 37.2318 27.9028 37.2318C26.7223 37.6645 25.2199 37.2318 25.2199 37.2318C27.4199 37.0155 28.9223 36.2042 28.9223 36.2042C27.7955 36.5287 26.5077 36.0961 26.5077 36.0961C28.6004 35.6634 30.1028 34.6358 30.1028 34.6358C29.2979 35.0685 27.5272 34.9603 27.5272 34.9603C31.015 33.9327 31.7126 32.4725 31.7126 32.4725C30.6931 33.3919 28.4931 33.5 28.4931 33.5C30.9077 32.797 32.5175 30.9581 32.5175 30.9581C31.4979 31.6612 29.9418 31.7694 29.9418 31.7694C32.4638 30.2009 33.8589 27.1181 33.8589 27.1181Z" fill="#151717"/>
<path d="M9.39041 40.7475C9.39041 40.7475 9.06846 41.3424 9.39041 41.9914C9.39041 41.9914 7.78066 41.7751 7.78066 40.5311C7.78066 39.9362 8.15627 39.5035 8.15627 39.5035C8.15627 39.5035 7.45871 37.232 9.87334 36.4207C12.288 35.6095 14.166 34.9605 13.6831 33.0135C13.2002 31.0664 10.4636 32.5267 10.088 32.5808C9.71236 32.689 8.90749 32.5808 9.49773 31.445C10.088 30.3093 11.966 24.306 7.67334 18.0322C7.67334 18.0322 9.2831 19.2762 10.3563 21.2232C10.3563 21.2232 10.4636 20.7364 10.1416 19.9792C10.1416 19.9792 11.1611 21.115 11.6441 22.4671C11.6441 22.4671 11.6441 20.0874 11.1611 18.9517C11.1611 18.9517 12.7709 21.4395 13.4685 23.657C13.4685 23.657 13.7904 22.0344 13.5758 20.7905C13.5758 20.7905 14.7026 23.2784 14.9709 25.8203C14.9709 25.8203 15.4538 23.6569 15.4538 22.5212C15.4538 22.5212 16.0441 24.36 16.0441 27.3347C16.0441 27.3347 16.8489 25.8744 17.0636 24.2519C17.0636 24.2519 17.3855 26.902 16.9563 28.849C16.9563 28.849 17.7611 27.7132 18.0831 26.0907C18.0831 26.0907 18.1904 28.7408 17.7611 30.2011C17.7611 30.2011 18.7807 29.1735 19.1563 27.7132C19.1563 27.7132 19.1563 29.6603 18.4587 31.2828C18.4587 31.2828 19.4782 30.6879 19.9611 29.5521C19.9611 29.5521 19.5855 31.2828 18.7807 32.5267C18.7807 32.5267 19.6929 31.9318 19.9611 31.2828C19.9611 31.2828 19.9611 31.9859 19.5855 32.6349C19.5855 32.6349 21.3026 30.9042 23.3953 29.7684C25.488 28.6327 29.6197 26.6856 30.6929 24.4141C31.766 22.1426 31.1758 19.168 30.6929 18.5731C30.6929 18.5731 32.4636 19.6007 32.088 23.2784C31.8733 25.3336 29.888 27.8214 29.888 27.8214C29.888 27.8214 32.4099 26.0907 33.3758 22.8998C33.3758 22.8998 33.6977 26.1989 30.2636 29.2817C30.2636 29.2817 31.8733 28.9572 33.6441 26.7397C33.6441 26.7397 32.2489 29.8225 29.727 31.3369C29.727 31.3369 31.3368 31.2287 32.3026 30.5256C32.3026 30.5256 30.6929 32.3645 28.2782 33.0675C28.2782 33.0675 30.4782 32.9594 31.4977 32.04C31.4977 32.04 30.8002 33.5002 27.3124 34.5278C27.3124 34.5278 29.1368 34.636 29.888 34.2033C29.888 34.2033 28.3855 35.2309 26.2929 35.6636C26.2929 35.6636 27.5807 36.0962 28.7075 35.7717C28.7075 35.7717 27.205 36.583 25.005 36.7993C25.005 36.7993 26.5075 37.232 27.688 36.7993C27.688 36.7993 24.7904 39.179 24.3075 40.477C23.9855 41.2883 24.5221 41.8291 24.5221 41.8291C24.5221 41.8291 24.0392 41.9373 23.8246 41.721C23.8246 41.721 23.7172 42.5322 23.9319 42.6404C23.9319 42.6404 23.3416 42.7486 23.127 42.4241C23.127 42.4241 23.3416 43.1271 23.8246 43.2353C24.3075 43.3435 24.2002 43.9384 23.8246 44.4792C23.8246 44.4792 23.8246 43.668 23.5026 43.668C23.1807 43.668 23.1807 45.0201 23.3953 45.1283C23.6099 45.2364 23.9855 45.1283 23.9855 45.1283C23.9855 45.1283 23.7172 45.7773 23.0197 45.5609C22.3221 45.3446 22.4831 44.2629 22.4831 44.2629C22.4831 44.2629 22.1075 44.3711 21.8392 44.6415C21.8392 44.6415 21.3563 45.3987 22.0002 45.8854C22.0002 45.8854 21.1416 45.9395 21.088 45.0742C21.0343 44.0466 21.4099 43.7221 21.7855 43.5598C22.1611 43.3435 22.2685 43.3435 22.2685 43.3435C22.2685 43.3435 22.3758 42.7486 21.9465 42.4241C21.5172 42.0996 20.6587 41.6128 20.4441 41.721C20.2294 41.8291 19.9611 42.4241 20.0685 42.6404C20.0685 42.6404 20.5514 42.6404 20.4441 43.1271C20.3368 43.6139 19.8538 43.6139 19.8538 43.6139C19.8538 43.6139 20.0685 43.2894 19.9611 43.1271C19.8538 42.9649 19.4782 42.9108 19.4782 43.5598C19.4782 44.2088 20.0685 43.9925 20.0685 43.9925C20.0685 43.9925 19.6392 44.8578 18.9953 44.2629C18.9953 44.2629 18.7807 44.4792 19.1026 44.7497C19.1026 44.7497 18.0831 44.966 18.0294 43.5598C17.9758 42.4781 19.1026 42.37 19.1026 42.37C19.1026 42.37 19.0489 41.8291 18.9416 41.721C18.8343 41.6128 16.6343 42.4241 14.6489 41.6128C12.6636 40.8015 12.127 40.1525 11.5368 40.1525C10.9465 40.1525 9.55139 40.423 9.39041 40.7475Z" fill="white"/>
<path d="M21.5172 44.2629C21.5172 44.2629 20.9806 44.3711 21.0879 45.0201C21.1416 45.3986 21.9465 45.9395 22.1611 45.3446C22.1611 45.3446 21.7318 45.5068 21.6245 44.6956C21.6245 44.1006 21.5172 44.2629 21.5172 44.2629Z" fill="white"/>
<path d="M53.1758 37.6102L55.0002 37.1776V17.7074H51.5124C51.5124 18.9513 51.1904 20.0871 50.5465 21.2228C50.2782 21.7096 49.9563 22.0882 49.5807 22.3586H48.6685V16.9502H66.2148V22.4127H65.3026C64.927 22.0882 64.605 21.7096 64.3367 21.2769C63.6928 20.1952 63.3709 19.0054 63.3709 17.7615H59.9367V37.2317L61.7611 37.6643V38.097H53.1758V37.6102Z" fill="white"/>
<path d="M68.4683 37.6102L70.2927 37.1776V17.8155L68.4683 17.3829V16.9502H76.839C80.1658 16.9502 82.5268 17.491 83.9756 18.5727C85.4244 19.6544 86.1219 21.2769 86.1219 23.4403C86.1219 25.5495 85.4244 27.1721 83.9756 28.3078C82.5268 29.3895 80.1658 29.9303 76.839 29.9303H75.1756V37.1776L77 37.6102V38.0429H68.4683V37.6102ZM76.839 29.1732C78.0731 29.1732 79.0926 28.6864 79.8975 27.7129C80.6487 26.7394 81.0244 25.3332 81.0244 23.4403C81.0244 21.5473 80.6487 20.1411 79.8975 19.1676C79.1463 18.1941 78.1268 17.7074 76.839 17.7074H75.1756V29.1732H76.839Z" fill="white"/>
<path d="M88.644 38.097V37.6643L90.4684 37.2317V17.8155L88.644 17.3829V16.9502H97.1758V17.3829L95.405 17.8155V33.0672L102.434 20.0871V17.8155L100.61 17.3829V16.9502H109.142V17.3829L107.371 17.8155V37.1235L109.142 37.5562V37.9888H100.61V37.5562L102.434 37.1235V21.9259L95.405 34.906V37.1776L97.1758 37.6102V38.0429H88.644V38.097Z" fill="white"/>
<path d="M115.259 37.7726C114.722 37.2859 114.4 36.6368 114.4 35.8256C114.4 35.0684 114.615 34.4194 115.098 33.9867C115.581 33.5 116.117 33.2836 116.815 33.2836C116.976 33.2836 117.137 33.2836 117.298 33.3377C117.459 33.3918 117.566 33.3918 117.62 33.3918L117.995 33.4459V37.6644C119.015 37.5022 120.035 36.2583 121 33.8786L111.878 17.8697L110.376 17.4371V17.0044H114.293C115.259 17.0044 116.064 17.2207 116.708 17.7075C117.352 18.1402 117.888 18.7892 118.371 19.6004L123.415 28.4702L127.815 18.4106L125.561 17.4911V17.0585H131.088V17.4911L128.674 18.4106L121.913 33.9867C121.215 35.6633 120.517 36.8532 119.766 37.5563C119.069 38.3134 118.264 38.6379 117.405 38.6379C116.547 38.5298 115.849 38.2594 115.259 37.7726Z" fill="white"/>
<path d="M134.683 20.682V36.6908L137.098 37.6102V38.0429H131.41V37.6102L133.825 36.6908V17.8155L131.732 17.3829V16.9502H135.756C136.776 16.9502 137.635 17.1665 138.225 17.5992C138.815 18.0319 139.352 18.6809 139.781 19.4921L146.327 32.0937L151.317 19.4921C151.639 18.6268 152.122 17.9778 152.713 17.5451C153.303 17.1124 154.161 16.9502 155.396 16.9502H158.561V17.3829L156.791 17.8155V37.1235L158.561 37.5562V37.9888H150.03V37.5562L151.854 37.1235V20.682L144.825 38.3674H143.805L134.683 20.682Z" fill="white"/>
<path d="M169.132 37.6102L170.956 37.1775V35.5009C168.756 35.3927 166.932 34.9601 165.376 34.2029C163.82 33.4457 162.639 32.4722 161.834 31.2283C161.029 29.9843 160.654 28.6323 160.654 27.172C160.654 25.7117 161.029 24.3055 161.834 23.1157C162.639 21.8718 163.82 20.8983 165.376 20.1411C166.932 19.3839 168.81 18.9512 170.956 18.8431V17.3287L169.132 16.8961V16.4634H177.664V16.8961L175.839 17.3287V18.8431C178.039 18.9512 179.864 19.3839 181.42 20.1411C182.976 20.8983 184.156 21.8718 184.961 23.1157C185.766 24.3596 186.142 25.7117 186.142 27.172C186.142 28.6323 185.766 30.0384 184.961 31.2283C184.156 32.4722 182.976 33.4457 181.42 34.2029C179.864 34.9601 177.986 35.3927 175.839 35.5009V37.1775L177.664 37.6102V38.0428H169.132V37.6102ZM170.903 19.4921C169.454 19.6543 168.22 20.4115 167.254 21.7095C166.288 23.0075 165.805 24.8464 165.805 27.172C165.805 29.4976 166.288 31.3364 167.254 32.6345C168.22 33.9325 169.454 34.6896 170.903 34.8519V19.4921ZM179.488 32.6885C180.454 31.3905 180.937 29.5517 180.937 27.2261C180.937 24.9005 180.454 23.0616 179.488 21.7636C178.522 20.4656 177.288 19.7084 175.839 19.5462V34.9601C177.342 34.7437 178.522 33.9866 179.488 32.6885Z" fill="white"/>
<path d="M53.2829 53.1321V51.5096H49.3122V53.1321H47.9707V50.3197H48.4536C49.2048 49.3462 49.4731 47.9941 49.4731 46.1553V45.2358H53.9268V50.3738H54.6244V53.1862H53.2829V53.1321ZM52.5317 46.3175H50.8146V46.4257C50.8146 48.1564 50.5463 49.2921 49.9561 50.3197H52.5317V46.3175Z" fill="#D3AA50"/>
<path d="M61.0096 46.3716H57.6828V47.7237H60.7413V48.8054H57.6828V50.3738H61.0633V51.5096H56.3413V45.2358H61.0633V46.3716H61.0096Z" fill="#D3AA50"/>
<path d="M67.6634 46.3716H65.7854V51.5096H64.3903V46.3716H62.5122V45.2358H67.6634V46.3716Z" fill="#D3AA50"/>
<path d="M74.0486 46.3716H70.7218V47.7237H73.7803V48.8054H70.7218V50.3738H74.1023V51.5096H69.3267V45.2358H74.0486V46.3716Z" fill="#D3AA50"/>
<path d="M79.1464 47.7237L81.8294 51.5637H80.1123L78.2342 48.7513L77.4294 49.5626V51.6177H76.0879V45.2358H77.4294V47.886L79.8976 45.2358H81.6147L79.1464 47.7237Z" fill="#D3AA50"/>
<path d="M87.9999 46.3716H86.1218V51.5096H84.7267V46.3716H82.8486V45.2358H87.9999V46.3716Z" fill="#D3AA50"/>
<path d="M94.9758 51.5099H93.5806V47.1291L91.2197 51.5099H89.6636V45.2362H91.0587V49.5629L93.4197 45.1821H94.9758V51.5099Z" fill="#D3AA50"/>
<path d="M100.127 45.2358C101.2 45.2358 102.112 45.7226 102.112 46.8043C102.112 47.3992 101.79 47.886 101.254 48.1023C101.898 48.2645 102.381 48.7513 102.381 49.6707C102.381 50.9146 101.415 51.5637 100.234 51.5637H97.1221V45.2358H100.127ZM98.4635 47.7778H99.6977C100.181 47.7778 100.717 47.6696 100.717 47.0206C100.717 46.3716 100.181 46.2634 99.6977 46.2634H98.4635V47.7778ZM98.4635 50.4279H99.8587C100.449 50.4279 101.039 50.3197 101.039 49.5626C101.039 48.8054 100.449 48.6972 99.805 48.6972H98.5172V50.4279H98.4635Z" fill="#D3AA50"/>
<path d="M109.624 51.5096H108.229V48.8054H105.707V51.5096H104.312V45.2358H105.707V47.6155H108.283V45.2358H109.678V51.5096H109.624Z" fill="#D3AA50"/>
<path d="M117.673 48.3729C117.673 50.3199 116.439 51.672 114.615 51.672C112.737 51.672 111.502 50.374 111.502 48.3729C111.502 46.3717 112.737 45.0737 114.615 45.0737C116.439 45.0737 117.673 46.4258 117.673 48.3729ZM112.898 48.3729C112.898 49.7249 113.541 50.5362 114.615 50.5362C115.634 50.5362 116.278 49.7249 116.278 48.3729C116.278 47.0208 115.634 46.2095 114.561 46.2095C113.595 46.2095 112.898 47.0208 112.898 48.3729Z" fill="#D3AA50"/>
<path d="M124.327 46.3716H121V47.7237H124.059V48.8054H121V50.3738H124.381V51.5096H119.605V45.2358H124.327V46.3716Z" fill="#D3AA50"/>
<path d="M138.6 51.5099H137.151L136.668 50.1038H134.361L133.824 51.5099H132.429L134.79 45.1821H136.185L138.6 51.5099ZM135.488 46.7506L134.629 49.0762H136.293L135.488 46.7506Z" fill="#D3AA50"/>
<path d="M144.449 46.3716H141.444V51.5096H140.049V45.2358H144.395V46.3716H144.449Z" fill="#D3AA50"/>
<path d="M150.781 46.3716H147.454V47.7237H150.512V48.8054H147.454V50.3738H150.834V51.5096H146.059V45.2358H150.781V46.3716Z" fill="#D3AA50"/>
<path d="M158.078 51.5096H156.683V48.8054H154.107V51.5096H152.712V45.2358H154.107V47.6155H156.683V45.2358H158.078V51.5096Z" fill="#D3AA50"/>
<path d="M163.068 51.672C161.244 51.672 160.063 50.374 160.063 48.3729C160.063 46.534 161.244 45.0737 163.122 45.0737C164.624 45.0737 165.751 46.0472 165.805 47.3453H164.463C164.303 46.6422 163.82 46.2636 163.068 46.2636C161.888 46.2636 161.405 47.3453 161.405 48.4269C161.405 49.7249 162.049 50.5362 163.068 50.5362C163.873 50.5362 164.41 50.0494 164.517 49.13H165.859C165.698 50.6444 164.785 51.672 163.068 51.672Z" fill="#D3AA50"/>
<path d="M172.244 46.3716H170.366V51.5096H168.971V46.3716H167.093V45.2358H172.244V46.3716Z" fill="#D3AA50"/>
<path d="M176.912 45.2358C177.985 45.2358 178.897 45.7226 178.897 46.8043C178.897 47.3992 178.575 47.886 178.039 48.1023C178.683 48.2645 179.166 48.7513 179.166 49.6707C179.166 50.9146 178.2 51.5637 177.019 51.5637H173.907V45.2358H176.912ZM175.249 47.7778H176.483C176.966 47.7778 177.502 47.6696 177.502 47.0206C177.502 46.3716 176.966 46.2634 176.483 46.2634H175.249V47.7778ZM175.249 50.4279H176.644C177.234 50.4279 177.824 50.3197 177.824 49.5626C177.824 48.8054 177.234 48.6972 176.59 48.6972H175.302V50.4279H175.249Z" fill="#D3AA50"/>
<path d="M187 48.3729C187 50.3199 185.766 51.672 183.941 51.672C182.063 51.672 180.829 50.374 180.829 48.3729C180.829 46.3717 182.063 45.0737 183.941 45.0737C185.766 45.0737 187 46.4258 187 48.3729ZM182.224 48.3729C182.224 49.7249 182.868 50.5362 183.941 50.5362C184.961 50.5362 185.605 49.7249 185.605 48.3729C185.605 47.0208 184.961 46.2095 183.888 46.2095C182.868 46.2095 182.224 47.0208 182.224 48.3729Z" fill="#D3AA50"/>
</g>
<defs>
<linearGradient id="paint0_linear_186_100930" x1="0.000191846" y1="33.499" x2="37.6357" y2="33.499" gradientUnits="userSpaceOnUse">
<stop stop-color="#6D1127"/>
<stop offset="1" stop-color="#9A183B"/>
</linearGradient>
<clipPath id="clip0_186_100930">
<rect width="187" height="49" fill="white" transform="translate(0 9)"/>
</clipPath>
</defs>
</svg>
