<svg width="146" height="110" viewBox="0 0 146 110" fill="none" xmlns="http://www.w3.org/2000/svg">
<path d="M24.0558 110C20.1432 106.496 16.3568 103.242 12.4442 99.7384C24.0558 89.9773 33.648 79.0899 38.1917 64.198C34.0267 64.198 29.9879 64.6986 26.2014 64.0729C8.91018 61.4449 -2.0704 46.1775 0.327658 28.5325C3.10436 7.5086 21.0267 -4.37991 41.5995 1.50177C54.2209 5.00575 61.1626 14.1411 63.5607 26.2799C67.5995 46.9284 62.9296 66.2003 51.3179 83.8453C44.3762 94.4824 34.9102 102.742 24.0558 110Z" fill="#FFEFC7"/>
<path d="M105.056 110C101.143 106.496 97.3568 103.242 93.4442 99.7384C105.056 89.9773 114.648 79.0899 119.192 64.198C115.027 64.198 110.988 64.6986 107.201 64.0729C89.9102 61.4449 78.9296 46.1775 81.3277 28.5325C84.1044 7.5086 102.027 -4.37991 122.6 1.50177C135.221 5.00575 142.163 14.1411 144.561 26.2799C148.6 46.9284 143.93 66.2003 132.318 83.8453C125.376 94.4824 115.91 102.742 105.056 110Z" fill="#FFEFC7"/>
</svg>
