<svg width="87" height="65" viewBox="0 0 87 65" fill="none" xmlns="http://www.w3.org/2000/svg">
<path d="M62.0927 65C59.8053 62.9295 57.5917 61.0069 55.3043 58.9363C62.0927 53.1684 67.7005 46.735 70.3568 37.9352C67.9218 37.9352 65.5607 38.231 63.3471 37.8612C53.2383 36.3083 46.8189 27.2867 48.2209 16.8601C49.8442 4.4369 60.3218 -2.58813 72.349 0.887411C79.7276 2.95795 83.7859 8.35613 85.1878 15.529C87.549 27.7304 84.8189 39.1184 78.0306 49.545C73.9723 55.8305 68.4383 60.7111 62.0927 65Z" fill="#FFF9EA"/>
<path d="M14.0927 65C11.8053 62.9295 9.59173 61.0069 7.30435 58.9363C14.0927 53.1684 19.7005 46.735 22.3568 37.9352C19.9218 37.9352 17.5607 38.231 15.3471 37.8612C5.23833 36.3083 -1.18109 27.2867 0.220851 16.8601C1.84415 4.4369 12.3218 -2.58813 24.349 0.887411C31.7276 2.95795 35.7859 8.35613 37.1878 15.529C39.549 27.7304 36.8189 39.1184 30.0306 49.545C25.9723 55.8305 20.4383 60.7111 14.0927 65Z" fill="#FFF9EA"/>
</svg>
