<svg width="444" height="485" viewBox="0 0 444 485" fill="none" xmlns="http://www.w3.org/2000/svg">
<path d="M24.9812 352.101C24.9812 352.101 17.8822 360.295 19.9704 370.802C19.9704 370.802 -3.75188 361.179 1.29607 342.34C3.82005 332.92 11.5904 328.321 11.5904 328.321C11.5904 328.321 10.1204 291.107 50.1999 288.484C90.418 285.898 122.056 284.28 122.235 252.555C122.415 220.831 75.2361 231.648 68.7278 231.537C62.2195 231.426 50.289 226.596 64.1803 211.908C77.9329 197.183 130.814 113.511 90.322 0.66333C90.322 0.66333 109.85 25.9392 118.821 60.1153C118.821 60.1153 122.424 52.7666 120.781 40.5973C120.781 40.5973 131.568 61.8977 133.774 84.1653C133.774 84.1653 143.387 48.2876 140.364 29.0676C140.364 29.0676 154.882 73.0441 156.352 110.258C156.352 110.258 167.608 86.55 169.569 67.032C169.569 67.032 176.461 108.965 170.569 149.255C170.569 149.255 186.991 118.468 191.593 101.291C191.593 101.291 193.208 131.863 181.071 177.16C181.071 177.16 199.274 158.58 209.005 134.463C209.005 134.463 202.705 176.276 188.662 204.286C188.662 204.286 205.603 190.415 216.859 166.706C216.859 166.706 207.509 207.703 195.544 227.955C195.544 227.955 215.127 216.425 227.055 196.311C227.055 196.311 219.112 225.955 201.756 248.029C201.756 248.029 219.668 242.733 231.896 227.599C231.896 227.599 218.669 252.561 201.32 267.956C201.32 267.956 217.707 262.251 224.769 254.196C224.769 254.196 221.837 265.139 213.25 272.786C213.25 272.786 246.441 253.173 283.17 244.753C319.899 236.333 390.821 223.415 416.94 193.593C443.058 163.772 445.907 115.985 440.769 104.661C440.769 104.661 463.646 127.42 443.031 182.174C431.63 212.525 390.932 241.855 390.932 241.855C390.932 241.855 436.461 225.549 464.665 181.29C464.665 181.29 455.841 232.523 391.167 265.376C391.167 265.376 416.968 267.242 453.762 240.28C453.762 240.28 419.728 281.343 375.191 294.501C375.191 294.501 400.138 299.553 418.459 292.733C418.459 292.733 386.385 314.278 346.576 315.34C346.576 315.34 380.673 322.843 399.847 312.837C399.847 312.837 383.308 331.863 325.359 332.965C325.359 332.965 352.54 341.881 366.549 338.953C366.549 338.953 339.341 348.44 305.507 346.055C305.507 346.055 323.8 357.638 341.976 357.46C341.976 357.46 315.622 363.761 281.079 357.92C281.079 357.92 302.423 370.32 322.532 369.027C322.532 369.027 268.027 393.322 255.334 411.3C247.419 422.542 252.965 432.342 252.965 432.342C252.965 432.342 244.932 431.823 242.698 427.958C242.698 427.958 237.833 440.016 240.475 442.357C240.475 442.357 230.916 441.429 228.99 435.865C228.99 435.865 229.107 447.626 236.324 451.193C243.541 454.76 239.492 463.77 231.313 469.893C231.313 469.893 234.654 457.426 230.079 456.2C225.504 454.974 220.085 475.199 222.689 477.678C225.331 480.019 231.839 480.13 231.839 480.13C231.839 480.13 225.434 488.51 215.575 482.602C205.717 476.694 212.768 460.915 212.768 460.915C212.768 460.915 206.611 460.602 201.061 463.569C201.061 463.569 190.281 473.3 198.407 482.901C198.407 482.901 184.875 480.166 187.745 466.682C191.07 450.944 197.739 447.683 204.693 446.132C211.647 444.58 213.172 444.989 213.172 444.989C213.172 444.989 217.221 435.978 212.346 429.772C207.507 423.428 195.722 411.956 192.264 412.662C188.806 413.369 181.707 421.563 182.415 425.019C182.415 425.019 190.04 427.062 186.437 434.411C182.833 441.759 175.208 439.716 175.208 439.716C175.208 439.716 179.52 435.824 178.812 432.367C178.14 428.773 172.04 427.138 169.516 436.558C166.992 445.977 176.996 445.243 176.996 445.243C176.996 445.243 166.501 456.684 159.875 444.813C159.875 444.813 155.971 447.181 159.321 452.979C159.321 452.979 143.079 452.041 148.064 430.661C151.89 414.167 168.972 416.962 168.972 416.962C168.972 416.962 170.441 408.151 169.324 406.219C168.208 404.286 131.178 407.727 103.741 387.013C76.443 366.336 71.2032 354.836 62.0532 352.384C52.9031 349.932 28.8227 347.192 24.9812 352.101Z" fill="#F5F5F5"/>
</svg>
