<svg width="515" height="829" viewBox="0 0 515 829" fill="none" xmlns="http://www.w3.org/2000/svg">
<path d="M41.4846 596.768C41.4846 596.768 29.4351 610.676 32.9795 628.51C32.9795 628.51 -7.28574 612.177 1.28246 580.2C5.56656 564.211 18.7556 556.405 18.7556 556.405C18.7556 556.405 16.2605 493.239 84.2898 488.787C152.554 484.398 206.255 481.65 206.56 427.803C206.864 373.955 126.785 392.315 115.738 392.127C104.691 391.939 84.4411 383.741 108.02 358.81C131.363 333.816 221.121 191.795 152.392 0.250977C152.392 0.250977 185.538 43.1532 200.764 101.162C200.764 101.162 206.881 88.689 204.092 68.0334C204.092 68.0334 222.4 104.188 226.145 141.984C226.145 141.984 242.462 81.0866 237.332 48.4632C237.332 48.4632 261.973 123.107 264.468 186.273C264.468 186.273 283.573 146.032 286.902 112.903C286.902 112.903 298.6 184.079 288.599 252.465C288.599 252.465 316.473 200.208 324.285 171.053C324.285 171.053 327.027 222.944 306.425 299.83C306.425 299.83 337.323 268.292 353.84 227.357C353.84 227.357 343.146 298.329 319.31 345.871C319.31 345.871 348.065 322.328 367.171 282.086C367.171 282.086 351.3 351.671 330.992 386.047C330.992 386.047 364.231 366.476 384.476 332.336C384.476 332.336 370.994 382.653 341.534 420.12C341.534 420.12 371.939 411.131 392.693 385.443C392.693 385.443 370.243 427.813 340.795 453.943C340.795 453.943 368.611 444.26 380.597 430.587C380.597 430.587 375.62 449.162 361.045 462.141C361.045 462.141 417.381 428.851 479.724 414.559C542.067 400.267 662.446 378.341 706.779 327.723C751.112 277.104 755.948 195.994 747.226 176.773C747.226 176.773 786.057 215.402 751.066 308.341C731.713 359.856 662.635 409.64 662.635 409.64C662.635 409.64 739.914 381.962 787.787 306.84C787.787 306.84 772.809 393.8 663.035 449.565C663.035 449.565 706.828 452.731 769.28 406.967C769.28 406.967 711.512 476.666 635.917 499C635.917 499 678.261 507.574 709.358 495.998C709.358 495.998 654.918 532.568 587.346 534.37C587.346 534.37 645.221 547.106 677.768 530.122C677.768 530.122 649.694 562.417 551.335 564.286C551.335 564.286 597.47 579.42 621.248 574.451C621.248 574.451 575.066 590.553 517.638 586.506C517.638 586.506 548.688 606.166 579.539 605.864C579.539 605.864 534.806 616.558 476.175 606.644C476.175 606.644 512.403 627.692 546.535 625.497C546.535 625.497 454.021 666.734 432.477 697.25C419.041 716.33 428.456 732.965 428.456 732.965C428.456 732.965 414.82 732.084 411.029 725.524C411.029 725.524 402.771 745.991 407.255 749.965C407.255 749.965 391.031 748.39 387.76 738.945C387.76 738.945 387.96 758.907 400.21 764.962C412.459 771.016 405.587 786.311 391.705 796.703C391.705 796.703 397.375 775.542 389.609 773.461C381.844 771.381 372.646 805.709 377.067 809.918C381.55 813.891 392.597 814.079 392.597 814.079C392.597 814.079 381.725 828.302 364.991 818.274C348.258 808.246 360.226 781.465 360.226 781.465C360.226 781.465 349.776 780.932 340.355 785.968C340.355 785.968 322.058 802.486 335.85 818.782C335.85 818.782 312.882 814.14 317.754 791.253C323.398 764.54 334.717 759.005 346.52 756.372C358.323 753.738 360.912 754.432 360.912 754.432C360.912 754.432 367.784 739.137 359.509 728.603C351.298 717.835 331.294 698.363 325.424 699.562C319.554 700.761 307.504 714.669 308.707 720.535C308.707 720.535 321.649 724.003 315.533 736.476C309.416 748.95 296.474 745.482 296.474 745.482C296.474 745.482 303.793 738.875 302.59 733.008C301.451 726.907 291.097 724.133 286.813 740.121C282.529 756.11 299.508 754.863 299.508 754.863C299.508 754.863 281.694 774.282 270.448 754.132C270.448 754.132 263.822 758.153 269.508 767.993C269.508 767.993 241.939 766.402 250.401 730.113C256.894 702.116 285.888 706.861 285.888 706.861C285.888 706.861 288.383 691.905 286.487 688.625C284.592 685.345 221.739 691.184 175.169 656.025C128.834 620.929 119.94 601.41 104.409 597.248C88.8782 593.087 48.0051 588.435 41.4846 596.768Z" fill="#F5F5F5"/>
</svg>
