<svg width="48" height="48" viewBox="0 0 48 48" fill="none" xmlns="http://www.w3.org/2000/svg">
<rect width="48" height="48" rx="8" fill="#830505"/>
<path fill-rule="evenodd" clip-rule="evenodd" d="M32.4853 18.343C33.2663 17.562 33.2663 16.2956 32.4853 15.5146C31.7042 14.7335 30.4379 14.7335 29.6569 15.5146L24 21.1714L18.3431 15.5146C17.5621 14.7335 16.2958 14.7335 15.5147 15.5146C14.7337 16.2956 14.7337 17.562 15.5147 18.343L21.1716 23.9999L15.5147 29.6567C14.7337 30.4378 14.7337 31.7041 15.5147 32.4851C16.2958 33.2662 17.5621 33.2662 18.3431 32.4851L24 26.8283L29.6569 32.4851C30.4379 33.2662 31.7042 33.2662 32.4853 32.4851C33.2663 31.7041 33.2663 30.4378 32.4853 29.6567L26.8284 23.9999L32.4853 18.343Z" fill="#D2A951"/>
</svg>
