<svg width="30" height="30" viewBox="0 0 30 30" fill="none" xmlns="http://www.w3.org/2000/svg">
<path d="M30 23.1504C30 26.9355 26.9355 30 23.1504 30H6.84961C3.06445 30 0 26.9355 0 23.1504V6.85547C0 3.07031 3.07031 0 6.85547 0H23.0449C26.8887 0 30 3.11133 30 6.95508V23.1504Z" fill="url(#paint0_radial_251_116504)"/>
<path d="M19.1719 4.13672H10.8281C7.13086 4.13672 4.13086 7.13672 4.13086 10.834V19.1719C4.13086 22.8691 7.125 25.8633 10.8281 25.8633H19.166C22.8633 25.8633 25.8574 22.8691 25.8574 19.1719V10.834C25.8633 7.13086 22.8691 4.13672 19.1719 4.13672ZM23.7773 18.3691C23.7773 21.3574 21.3574 23.7773 18.3691 23.7773H11.6309C8.64258 23.7773 6.22266 21.3574 6.22266 18.3691V11.6309C6.22266 8.64258 8.64258 6.22266 11.6309 6.22266H18.3691C21.3574 6.22266 23.7773 8.64844 23.7773 11.6309V18.3691Z" fill="white"/>
<path d="M15.293 9.31641C12.1289 9.31641 9.56836 11.877 9.56836 15.041C9.56836 18.1992 12.1289 20.7656 15.293 20.7656C18.4512 20.7656 21.0176 18.2051 21.0176 15.041C21.0117 11.877 18.4512 9.31641 15.293 9.31641ZM15.293 18.4805C13.3887 18.4805 11.8477 16.9395 11.8477 15.0352C11.8477 13.1309 13.3887 11.5898 15.293 11.5898C17.1914 11.5898 18.7383 13.1309 18.7383 15.0352C18.7324 16.9395 17.1914 18.4805 15.293 18.4805Z" fill="white"/>
<path d="M22.0723 9.22852C22.0723 10.0312 21.4219 10.6816 20.6191 10.6816C19.8164 10.6816 19.166 10.0312 19.166 9.22852C19.166 8.42578 19.8164 7.76953 20.6191 7.76953C21.4219 7.76953 22.0723 8.41992 22.0723 9.22852Z" fill="white"/>
<defs>
<radialGradient id="paint0_radial_251_116504" cx="0" cy="0" r="1" gradientUnits="userSpaceOnUse" gradientTransform="translate(8.78721 32.3226) scale(39.7545 39.7533)">
<stop offset="0.0969388" stop-color="#FFD87A"/>
<stop offset="0.1426" stop-color="#FCCE78"/>
<stop offset="0.2263" stop-color="#F5B471"/>
<stop offset="0.3378" stop-color="#EB8D65"/>
<stop offset="0.449" stop-color="#E36058"/>
<stop offset="0.6786" stop-color="#CD3694"/>
<stop offset="1" stop-color="#6668B0"/>
</radialGradient>
</defs>
</svg>
