<svg width="195" height="69" viewBox="0 0 195 69" fill="none" xmlns="http://www.w3.org/2000/svg">
<g clip-path="url(#clip0_252_55106)">
<path d="M38.72 14.4046L38.664 13.8971L38.2164 14.0099C36.5378 14.461 34.8592 14.6866 33.2365 14.6866C29.0959 14.6866 25.6827 13.3331 23.5564 12.2051C21.2623 10.9644 19.9194 9.66724 19.9194 9.66724L19.6396 9.38525L19.3599 9.66724C19.3599 9.66724 18.017 10.9644 15.7229 12.2051C13.5966 13.3331 10.2394 14.743 6.09875 14.743C4.42013 14.743 2.74151 14.5174 1.11884 14.0663L0.615254 13.9535L0.5593 14.4046C0.5593 14.461 -0.168103 19.9316 -0.000241224 26.5301C0.111667 30.4216 0.503345 33.9182 1.11884 36.9073C1.9022 40.6859 3.07723 43.7878 4.6999 45.9873C7.88928 50.4991 11.7501 54.165 14.38 56.4209C17.2336 58.9024 19.4158 60.3123 19.4158 60.3123L19.6396 60.4815L19.8635 60.3123C19.8635 60.3123 22.0457 58.846 24.8993 56.4209C27.5292 54.165 31.39 50.4991 34.5794 45.9873C36.1461 43.7878 37.3771 40.6859 38.1604 36.9073C38.7759 33.9182 39.1676 30.4216 39.2236 26.5301C39.3914 19.9316 38.72 14.461 38.72 14.4046ZM33.3484 15.1378C33.4043 15.1378 33.4043 15.1378 33.4603 15.1378C33.4043 15.1378 33.4043 15.1378 33.3484 15.1378ZM37.8247 14.5738C37.7688 14.5738 37.7688 14.5738 37.7128 14.5738C37.7688 14.5738 37.8247 14.5738 37.8247 14.5738ZM36.8175 14.7994C36.7616 14.7994 36.7616 14.7994 36.7056 14.7994C36.7616 14.7994 36.8175 14.7994 36.8175 14.7994ZM36.314 14.9122H36.258C36.258 14.9122 36.258 14.9122 36.314 14.9122ZM35.8663 14.9686C35.8104 14.9686 35.8104 14.9686 35.7544 14.9686C35.7544 14.9686 35.8104 14.9686 35.8663 14.9686ZM35.3068 15.025H35.2508H35.3068ZM34.8592 15.0814C34.8032 15.0814 34.8032 15.0814 34.7472 15.0814C34.8032 15.0814 34.8592 15.0814 34.8592 15.0814ZM34.3556 15.0814H34.2996H34.3556ZM33.9079 15.1378C33.852 15.1378 33.852 15.1378 33.796 15.1378C33.852 15.1378 33.9079 15.1378 33.9079 15.1378ZM33.0686 15.1378C33.0127 15.1378 32.9567 15.1378 32.9008 15.1378C32.9567 15.1378 33.0127 15.1378 33.0686 15.1378ZM32.621 15.1378C32.565 15.1378 32.5091 15.1378 32.5091 15.1378C32.5091 15.1378 32.565 15.1378 32.621 15.1378ZM31.6698 15.0814C31.6138 15.0814 31.5579 15.0814 31.5579 15.0814C31.5579 15.0814 31.6138 15.0814 31.6698 15.0814ZM31.2221 15.025C31.1662 15.025 31.1102 15.025 31.0543 15.025C31.1662 15.025 31.2221 15.025 31.2221 15.025ZM30.8305 14.9686C30.7745 14.9686 30.7186 14.9686 30.6626 14.9686C30.7186 14.9686 30.7745 14.9686 30.8305 14.9686ZM30.4388 14.9122C30.3828 14.9122 30.3828 14.9122 30.3269 14.9122C30.3269 14.9122 30.3828 14.9122 30.4388 14.9122ZM29.5435 14.7994C29.4876 14.7994 29.4876 14.7994 29.4316 14.7994C29.4876 14.7994 29.4876 14.7994 29.5435 14.7994ZM29.1518 14.743C29.0959 14.743 29.0399 14.743 29.0399 14.6866C29.0959 14.6866 29.0959 14.6866 29.1518 14.743ZM28.8161 14.6302C28.7602 14.6302 28.7042 14.6302 28.7042 14.5738C28.7042 14.6302 28.7602 14.6302 28.8161 14.6302ZM28.4244 14.5174C28.3685 14.5174 28.3685 14.5174 28.3125 14.461C28.3125 14.5174 28.3685 14.5174 28.4244 14.5174ZM27.5851 14.3482C27.5292 14.3482 27.5292 14.3482 27.4732 14.2918C27.5292 14.2918 27.5851 14.2918 27.5851 14.3482ZM27.2494 14.2355C27.1934 14.2355 27.1934 14.2355 27.1375 14.1791C27.1934 14.1791 27.1934 14.1791 27.2494 14.2355ZM26.9137 14.1227C26.8577 14.1227 26.8577 14.1227 26.8018 14.0663C26.8577 14.0663 26.8577 14.0663 26.9137 14.1227ZM26.5779 14.0099C26.522 14.0099 26.522 14.0099 26.466 13.9535C26.522 13.9535 26.522 13.9535 26.5779 14.0099ZM25.8505 13.7279C25.7946 13.7279 25.7946 13.7279 25.7386 13.6715C25.7946 13.6715 25.7946 13.7279 25.8505 13.7279ZM25.5148 13.6151C25.4589 13.6151 25.4589 13.5587 25.4029 13.5587C25.4589 13.5587 25.5148 13.5587 25.5148 13.6151ZM25.2351 13.4459C25.1791 13.4459 25.1791 13.3895 25.1231 13.3895C25.1231 13.4459 25.1791 13.4459 25.2351 13.4459ZM24.8993 13.3331C24.8434 13.3331 24.8434 13.2767 24.7874 13.2767C24.8434 13.2767 24.8993 13.3331 24.8993 13.3331ZM24.2838 13.0511C24.2838 13.0511 24.2279 13.0511 24.2279 12.9947C24.2279 12.9947 24.2279 12.9947 24.2838 13.0511ZM24.0041 12.8819C23.9481 12.8819 23.9481 12.8255 23.8922 12.8255C23.9481 12.8819 23.9481 12.8819 24.0041 12.8819ZM23.7243 12.7691C23.6683 12.7691 23.6683 12.7127 23.6124 12.7127C23.6683 12.7127 23.7243 12.7691 23.7243 12.7691ZM23.4445 12.5999C23.3886 12.5999 23.3886 12.5435 23.3326 12.5435C23.3886 12.5999 23.4445 12.5999 23.4445 12.5999ZM23.1648 12.4871C23.1648 12.4307 23.1648 12.4307 23.1648 12.4871C23.1648 12.4307 23.1648 12.4307 23.1648 12.4871ZM22.885 12.3179C22.885 12.3179 22.829 12.3179 22.829 12.2615C22.885 12.2615 22.885 12.3179 22.885 12.3179ZM22.6612 12.1487L22.6052 12.0923C22.6052 12.1487 22.6612 12.1487 22.6612 12.1487ZM22.4373 12.0359L22.3814 11.9795L22.4373 12.0359ZM22.2135 11.9231L22.1576 11.8668C22.1576 11.8668 22.2135 11.8667 22.2135 11.9231ZM21.7659 11.5848C21.7659 11.5848 21.7099 11.5848 21.7659 11.5848C21.7099 11.5848 21.7659 11.5848 21.7659 11.5848ZM21.5421 11.472L21.4861 11.4156C21.5421 11.472 21.5421 11.472 21.5421 11.472ZM21.3742 11.3592L21.3183 11.3028L21.3742 11.3592ZM21.2064 11.2464C21.2064 11.2464 21.1504 11.2464 21.1504 11.19C21.1504 11.19 21.2064 11.19 21.2064 11.2464ZM21.0385 11.0772C21.0385 11.0772 20.9825 11.0772 21.0385 11.0772C20.9825 11.0772 21.0385 11.0772 21.0385 11.0772ZM20.7028 10.8516C20.7028 10.8516 20.6468 10.8516 20.7028 10.8516C20.6468 10.8516 20.7028 10.8516 20.7028 10.8516ZM20.3111 10.5696C20.3111 10.5696 20.3111 10.5132 20.3111 10.5696C20.3111 10.5132 20.3111 10.5696 20.3111 10.5696ZM20.1992 10.4568C20.1432 10.4568 20.1432 10.4568 20.1992 10.4568C20.1432 10.4568 20.1432 10.4568 20.1992 10.4568ZM20.0873 10.344C20.0873 10.344 20.0313 10.344 20.0873 10.344C20.0313 10.344 20.0873 10.344 20.0873 10.344ZM19.3599 10.1748C19.3599 10.2312 19.3599 10.2312 19.3599 10.1748C19.3599 10.2312 19.3599 10.2312 19.3599 10.1748ZM19.5277 10.062C19.4718 10.1184 19.4718 10.1184 19.5277 10.062C19.4718 10.1184 19.4718 10.1184 19.5277 10.062ZM19.4158 10.1184C19.4158 10.1748 19.4158 10.1748 19.4158 10.1184C19.4158 10.1748 19.4158 10.1748 19.4158 10.1184ZM5.81898 15.1378C5.87494 15.1378 5.87494 15.1378 5.93089 15.1378C5.87494 15.1378 5.81898 15.1378 5.81898 15.1378ZM19.3039 10.2876C19.3039 10.2876 19.248 10.2876 19.3039 10.2876C19.248 10.2876 19.3039 10.2876 19.3039 10.2876ZM19.1361 10.4004C19.0801 10.4568 19.0241 10.4568 19.0241 10.5132C19.0241 10.4568 19.0801 10.4568 19.1361 10.4004ZM18.9682 10.5132L18.9122 10.5696L18.9682 10.5132ZM18.8563 10.626L18.8003 10.6824C18.8003 10.626 18.8563 10.626 18.8563 10.626ZM18.7444 10.6824L18.6884 10.7388C18.6884 10.7388 18.7444 10.7388 18.7444 10.6824ZM18.6325 10.7952L18.5765 10.8516C18.5765 10.8516 18.5765 10.7952 18.6325 10.7952ZM18.4646 10.908C18.3527 10.9644 18.2408 11.0772 18.1289 11.1336C18.2967 11.0772 18.4087 10.9644 18.4646 10.908ZM18.1289 11.19C18.0729 11.19 18.0729 11.2464 18.017 11.2464C18.017 11.2464 18.0729 11.19 18.1289 11.19ZM17.961 11.3028C17.9051 11.3028 17.9051 11.3592 17.8491 11.3592C17.8491 11.3592 17.9051 11.3028 17.961 11.3028ZM17.7932 11.4156C17.7372 11.4156 17.7372 11.472 17.6812 11.472C17.6812 11.472 17.7372 11.4156 17.7932 11.4156ZM17.6253 11.5284C17.4574 11.6412 17.3455 11.6976 17.1777 11.8104C17.3455 11.6976 17.4574 11.6412 17.6253 11.5284ZM17.1217 11.8668C17.0658 11.8668 17.0658 11.9231 17.0098 11.9231C17.0098 11.9231 17.0658 11.8668 17.1217 11.8668ZM16.8979 11.9795C16.8419 11.9795 16.8419 12.0359 16.786 12.0359C16.8419 12.0359 16.8419 11.9795 16.8979 11.9795ZM16.6741 12.0923C16.6181 12.0923 16.5622 12.1487 16.5622 12.1487C16.6181 12.1487 16.6741 12.1487 16.6741 12.0923ZM16.4503 12.2051C16.2824 12.3179 16.1145 12.3743 15.9467 12.4871C16.1705 12.4307 16.3384 12.3179 16.4503 12.2051ZM15.8907 12.5435C15.8348 12.5435 15.7788 12.5999 15.7229 12.5999C15.7788 12.5999 15.8348 12.5999 15.8907 12.5435ZM15.6109 12.7127C15.555 12.7127 15.499 12.7691 15.4431 12.7691C15.555 12.7691 15.6109 12.7127 15.6109 12.7127ZM15.3871 12.8255C15.3312 12.8255 15.2752 12.8819 15.2193 12.8819C15.2752 12.8819 15.3312 12.8255 15.3871 12.8255ZM15.1074 12.9383C15.0514 12.9383 14.9955 12.9947 14.9395 12.9947C14.9955 12.9947 15.0514 12.9947 15.1074 12.9383ZM14.8276 13.1075C14.7157 13.1639 14.6597 13.1639 14.5478 13.2203C14.6597 13.1639 14.7716 13.1639 14.8276 13.1075ZM14.4359 13.2767C14.38 13.2767 14.324 13.3331 14.2681 13.3331C14.324 13.3331 14.38 13.2767 14.4359 13.2767ZM14.1561 13.3895C14.1002 13.3895 14.0442 13.4459 13.9883 13.4459C14.0442 13.4459 14.1002 13.4459 14.1561 13.3895ZM13.8764 13.5587C13.8204 13.5587 13.7645 13.6151 13.7085 13.6151C13.7645 13.5587 13.8204 13.5587 13.8764 13.5587ZM13.5406 13.6715C13.4847 13.6715 13.4287 13.7279 13.3728 13.7279C13.4287 13.7279 13.4847 13.6715 13.5406 13.6715ZM13.149 13.7843C13.093 13.7843 13.0371 13.8407 12.9811 13.8407C13.0371 13.8407 13.093 13.8407 13.149 13.7843ZM12.8132 13.9535C12.7573 13.9535 12.7013 14.0099 12.6454 14.0099C12.7013 14.0099 12.7573 13.9535 12.8132 13.9535ZM12.4775 14.0663C12.4216 14.0663 12.3656 14.1227 12.3097 14.1227C12.3656 14.1227 12.4216 14.0663 12.4775 14.0663ZM12.1418 14.1791C12.0858 14.1791 12.0299 14.2355 11.9739 14.2355C12.0299 14.1791 12.0858 14.1791 12.1418 14.1791ZM11.8061 14.2918C11.7501 14.2918 11.6942 14.3482 11.6382 14.3482C11.6942 14.2918 11.7501 14.2918 11.8061 14.2918ZM11.3584 14.4046C11.3025 14.4046 11.3025 14.4046 11.2465 14.461C11.2465 14.4046 11.3025 14.4046 11.3584 14.4046ZM10.9668 14.5174C10.9108 14.5174 10.8549 14.5174 10.7989 14.5738C10.8549 14.5174 10.9108 14.5174 10.9668 14.5174ZM10.5751 14.5738C10.5191 14.5738 10.4632 14.5738 10.4072 14.6302C10.5191 14.6302 10.5191 14.6302 10.5751 14.5738ZM10.2394 14.6866C10.1834 14.6866 10.1274 14.6866 10.0715 14.743C10.1274 14.6866 10.1834 14.6866 10.2394 14.6866ZM9.84768 14.743C9.79172 14.743 9.73577 14.743 9.73577 14.743C9.73577 14.7994 9.79172 14.7994 9.84768 14.743ZM9.34409 14.8558H9.28814C9.34409 14.8558 9.34409 14.8558 9.34409 14.8558ZM8.95241 14.9122C8.89646 14.9122 8.8405 14.9122 8.8405 14.9122C8.8405 14.9122 8.89646 14.9122 8.95241 14.9122ZM8.56073 14.9686C8.50478 14.9686 8.44883 14.9686 8.39287 14.9686C8.44883 14.9686 8.50478 14.9686 8.56073 14.9686ZM8.16906 15.025C8.1131 15.025 8.05715 15.025 8.00119 15.025C8.05715 15.025 8.1131 15.025 8.16906 15.025ZM7.72142 15.0814C7.66547 15.0814 7.60951 15.0814 7.60951 15.0814C7.66547 15.0814 7.66547 15.0814 7.72142 15.0814ZM6.7702 15.1378C6.71425 15.1378 6.6583 15.1378 6.6583 15.1378C6.6583 15.1378 6.71425 15.1378 6.7702 15.1378ZM6.37852 15.1378C6.32257 15.1378 6.26662 15.1378 6.21066 15.1378C6.26662 15.1378 6.32257 15.1378 6.37852 15.1378ZM5.37135 15.1378H5.3154H5.37135ZM4.92372 15.0814H4.86776C4.92372 15.0814 4.92372 15.0814 4.92372 15.0814ZM4.47609 15.0814C4.42013 15.0814 4.42013 15.0814 4.36418 15.0814C4.42013 15.0814 4.42013 15.0814 4.47609 15.0814ZM3.9725 15.025H3.91654C3.9725 15.025 3.9725 15.025 3.9725 15.025ZM3.46891 14.9686C3.41296 14.9686 3.41296 14.9686 3.357 14.9686C3.41296 14.9686 3.46891 14.9686 3.46891 14.9686ZM3.02128 14.9122C2.96533 14.9122 2.96533 14.9122 3.02128 14.9122C2.96533 14.9122 2.96533 14.9122 3.02128 14.9122ZM2.51769 14.7994C2.46174 14.7994 2.46174 14.7994 2.40578 14.7994C2.46174 14.7994 2.46174 14.7994 2.51769 14.7994ZM2.01411 14.6866C1.95815 14.6866 1.95815 14.6866 2.01411 14.6866C1.95815 14.6866 1.95815 14.6866 2.01411 14.6866ZM1.51052 14.6302C1.45457 14.6302 1.45457 14.6302 1.39861 14.6302C1.45457 14.5738 1.45457 14.5738 1.51052 14.6302ZM20.3111 59.4664C20.367 59.41 20.479 59.3536 20.5909 59.2972C20.479 59.3536 20.423 59.41 20.3111 59.4664ZM22.3814 57.9436C22.5493 57.8308 22.6612 57.718 22.829 57.6052C22.7171 57.6616 22.5493 57.7744 22.3814 57.9436ZM23.1088 57.3796C23.3326 57.2104 23.6124 56.9849 23.8362 56.7593C23.5564 56.9849 23.3326 57.154 23.1088 57.3796ZM25.1791 55.6313C24.8993 55.8569 24.6196 56.1389 24.3398 56.3645C24.6196 56.0825 24.8993 55.8569 25.1791 55.6313C25.347 55.4621 25.5708 55.2929 25.7386 55.1237C25.5708 55.2929 25.347 55.4621 25.1791 55.6313ZM26.2982 54.5598C26.466 54.3906 26.6899 54.2214 26.9137 53.9958C26.6899 54.2214 26.522 54.3906 26.2982 54.5598ZM27.5292 53.4318C27.753 53.2626 27.9208 53.037 28.1447 52.8114C27.9208 53.037 27.697 53.2626 27.5292 53.4318ZM28.4244 52.5294C28.6483 52.3039 28.8161 52.1347 29.0399 51.9091C28.8161 52.1347 28.6483 52.3603 28.4244 52.5294ZM30.8864 49.8788C31.2221 49.5404 31.5019 49.1456 31.8376 48.8072C31.5019 49.202 31.2221 49.5404 30.8864 49.8788Z" fill="url(#paint0_linear_252_55106)"/>
<path d="M19.6391 11.6411C20.3106 12.1487 21.3737 12.9383 22.7726 13.6715C25.0667 14.9122 28.7037 16.3785 33.236 16.3785C34.5789 16.3785 35.9218 16.2658 37.2087 15.9838C37.3766 18.0141 37.6563 21.9619 37.5444 26.4737C37.3206 34.877 35.8099 41.2499 33.236 44.9157C30.1585 49.2584 26.4655 52.8114 23.8916 55.0109C22.0451 56.5901 20.4784 57.7744 19.6391 58.3384C17.5129 56.8157 10.9662 51.8527 6.04228 44.9157C3.41243 41.3063 1.90167 34.9334 1.67786 26.5301C1.56595 22.0183 1.84572 18.0705 2.01358 16.0402C3.35648 16.3222 4.69938 16.4349 5.98632 16.4349C10.4626 16.4349 14.1556 14.9686 16.4497 13.7279C17.9045 12.9383 18.9677 12.1487 19.6391 11.6411ZM19.6391 9.94922C19.6391 9.94922 14.2116 15.1378 6.04228 15.1378C4.47556 15.1378 2.74099 14.9122 0.950454 14.461C0.950454 14.461 -1.73534 36.1741 5.0351 45.7053C11.1901 54.3342 19.6391 59.9175 19.6391 59.9175C19.6391 59.9175 28.0882 54.3342 34.2431 45.7053C41.0136 36.1741 38.2718 14.461 38.2718 14.461C36.4813 14.9122 34.7467 15.1378 33.18 15.1378C25.0107 15.1378 19.6391 9.94922 19.6391 9.94922Z" fill="#D2A951"/>
<path opacity="0.12" d="M35.3074 28.2787C33.4049 30.6474 31.7823 30.9294 31.7823 30.9294C35.3074 27.7148 35.0276 24.2745 35.0276 24.2745C33.9645 27.602 31.3906 29.4067 31.3906 29.4067C31.3906 29.4067 33.4609 26.8124 33.6847 24.6693C34.0764 20.8343 32.2299 19.7627 32.2299 19.7627C32.7335 20.3831 33.4049 23.485 32.2299 25.8537C31.0549 28.2224 26.8023 30.2527 24.6201 31.437C22.4379 32.6214 20.6474 34.4261 20.6474 34.4261C21.0391 33.8057 21.0391 33.0162 21.0391 33.0162C20.7033 33.6365 19.8081 34.3133 19.8081 34.3133C20.6474 33.0162 21.0391 31.2114 21.0391 31.2114C20.5355 32.3958 19.4724 33.0162 19.4724 33.0162C20.1998 31.3242 20.1998 29.2939 20.1998 29.2939C19.8081 30.8166 18.745 31.8882 18.745 31.8882C19.1366 30.3655 19.0807 27.602 19.0807 27.602C18.745 29.2939 17.9056 30.4783 17.9056 30.4783C18.2973 28.4479 18.0176 25.6845 18.0176 25.6845C17.7937 27.3764 16.9544 28.8991 16.9544 28.8991C16.9544 25.7973 16.3389 23.8797 16.3389 23.8797C16.3389 25.0641 15.8353 27.32 15.8353 27.32C15.4996 24.6693 14.3805 22.075 14.3805 22.075C14.6044 23.3722 14.2686 25.0641 14.2686 25.0641C13.5412 22.6954 11.8626 20.1575 11.8626 20.1575C12.3662 21.3418 12.3662 23.8233 12.3662 23.8233C11.8626 22.4134 10.7995 21.229 10.7995 21.229C11.1352 21.9622 11.0233 22.5262 11.0233 22.5262C9.84826 20.4959 8.22559 19.1987 8.22559 19.1987C12.7019 25.7409 10.7995 32.001 10.128 33.1853C9.51253 34.3697 10.3518 34.4825 10.7435 34.3697C11.1352 34.2569 13.9889 32.7906 14.4924 34.8209C14.996 36.8512 13.0376 37.4716 10.5197 38.3739C8.00177 39.2199 8.72917 41.5886 8.72917 41.5886C8.72917 41.5886 8.33749 42.0398 8.33749 42.6601C8.33749 43.9573 10.0161 44.1829 10.0161 44.1829C9.68039 43.5625 10.0161 42.8857 10.0161 42.8857C10.184 42.491 11.7507 42.3218 12.3662 42.3218C12.9817 42.3218 13.5412 42.9421 15.6115 43.8445C17.6818 44.6905 19.9759 43.8445 20.0879 43.9573C20.1998 44.0701 20.2557 44.6341 20.2557 44.6341C20.2557 44.6341 19.1366 44.7469 19.1366 45.8748C19.1926 47.3411 20.2557 47.1156 20.2557 47.1156C19.92 46.7772 20.1438 46.608 20.1438 46.608C20.7593 47.2284 21.2629 46.326 21.2629 46.326C21.2629 46.326 20.6474 46.5516 20.6474 45.8748C20.6474 45.198 21.0391 45.2544 21.151 45.4236C21.2629 45.6492 21.0391 45.9312 21.0391 45.9312C21.0391 45.9312 21.5427 45.9312 21.6546 45.4236C21.7665 44.916 21.2629 44.916 21.2629 44.916C21.151 44.6905 21.4867 44.0701 21.6546 43.9573C21.8784 43.8445 22.8296 44.4085 23.2213 44.6905C23.613 45.0288 23.557 45.6492 23.557 45.6492C23.557 45.6492 23.4451 45.6492 23.0534 45.8748C22.7737 46.044 22.4939 46.2696 22.382 46.7772C22.2701 46.89 22.2141 47.0592 22.2701 47.3411C22.2701 47.3975 22.326 47.4539 22.326 47.5103C22.382 48.4127 23.2772 48.3563 23.2772 48.3563C23.1094 48.2435 22.9975 48.0743 22.9415 47.9615C23.1094 47.9615 23.2772 47.9051 23.3891 47.6795C23.3891 47.6795 23.1094 47.7923 22.9415 47.4539C22.9975 47.2847 23.1094 47.1156 23.1094 47.1156C23.3891 46.8336 23.7808 46.7208 23.7808 46.7208C23.7808 46.7208 23.613 47.8487 24.3404 48.0743C25.0678 48.2999 25.3475 47.6231 25.3475 47.6231C25.3475 47.6231 24.9559 47.7359 24.732 47.6231C24.5082 47.5103 24.5082 46.1004 24.844 46.1004C25.1797 46.1004 25.1797 46.9464 25.1797 46.9464C25.5714 46.4388 25.6833 45.762 25.1797 45.6492C24.6761 45.5364 24.4523 44.8033 24.4523 44.8033C24.5642 45.0288 25.1797 44.916 25.1797 44.916C24.9559 44.8033 25.0678 43.9573 25.0678 43.9573C25.2916 44.1829 25.7952 44.0701 25.7952 44.0701C25.7952 44.0701 25.2916 43.5625 25.5714 42.6601C26.0749 41.3066 29.0965 38.8251 29.0965 38.8251C27.8655 39.2763 26.2988 38.8251 26.2988 38.8251C28.5929 38.5995 30.1596 37.7536 30.1596 37.7536C28.9846 38.0919 27.6417 37.6408 27.6417 37.6408C29.8239 37.1896 31.3906 36.118 31.3906 36.118C30.5513 36.5692 28.7048 36.4564 28.7048 36.4564C32.3418 35.3848 33.0692 33.8621 33.0692 33.8621C32.0061 34.8209 29.712 34.9337 29.712 34.9337C32.2299 34.2005 33.9085 32.283 33.9085 32.283C32.8454 33.0161 31.2227 33.1289 31.2227 33.1289C33.8526 31.4934 35.3074 28.2787 35.3074 28.2787Z" fill="#151717"/>
<path d="M9.79151 42.4907C9.79151 42.4907 9.45578 43.1111 9.79151 43.7879C9.79151 43.7879 8.11288 43.5623 8.11288 42.2651C8.11288 41.6448 8.50456 41.1936 8.50456 41.1936C8.50456 41.1936 7.77716 38.8249 10.2951 37.9789C12.813 37.1329 14.7714 36.4562 14.2678 34.4259C13.7642 32.3955 10.9106 33.9183 10.5189 33.9747C10.1272 34.0875 9.28792 33.9747 9.90342 32.7903C10.5189 31.606 12.4773 25.3458 8.00098 18.8037C8.00098 18.8037 9.6796 20.1009 10.7987 22.1312C10.7987 22.1312 10.9106 21.6236 10.5749 20.834C10.5749 20.834 11.638 22.0184 12.1416 23.4283C12.1416 23.4283 12.1416 20.9468 11.638 19.7625C11.638 19.7625 13.3166 22.3568 14.044 24.6691C14.044 24.6691 14.3797 22.9771 14.1559 21.68C14.1559 21.68 15.331 24.2743 15.6107 26.925C15.6107 26.925 16.1143 24.6691 16.1143 23.4847C16.1143 23.4847 16.7298 25.4022 16.7298 28.5041C16.7298 28.5041 17.5691 26.9814 17.7929 25.2894C17.7929 25.2894 18.1287 28.0529 17.681 30.0832C17.681 30.0832 18.5203 28.8989 18.8561 27.207C18.8561 27.207 18.968 29.9704 18.5203 31.4932C18.5203 31.4932 19.5835 30.4216 19.9752 28.8989C19.9752 28.8989 19.9752 30.9292 19.2477 32.6211C19.2477 32.6211 20.3109 32.0008 20.8145 30.8164C20.8145 30.8164 20.4228 32.6211 19.5835 33.9183C19.5835 33.9183 20.5347 33.2979 20.8145 32.6211C20.8145 32.6211 20.8145 33.3543 20.4228 34.0311C20.4228 34.0311 22.2133 32.2263 24.3955 31.042C26.5777 29.8576 30.8862 27.8273 32.0053 25.4586C33.1244 23.0899 32.5089 19.9881 32.0053 19.3677C32.0053 19.3677 33.8518 20.4392 33.4601 24.2743C33.2363 26.4174 31.166 29.0117 31.166 29.0117C31.166 29.0117 33.7958 27.207 34.803 23.8795C34.803 23.8795 35.1387 27.3198 31.5576 30.5344C31.5576 30.5344 33.2363 30.196 35.0828 27.8837C35.0828 27.8837 33.6279 31.0984 30.9981 32.6775C30.9981 32.6775 32.6767 32.5647 33.6839 31.8316C33.6839 31.8316 32.0053 33.7491 29.4873 34.4823C29.4873 34.4823 31.7815 34.3695 32.8446 33.4107C32.8446 33.4107 32.1172 34.9334 28.4802 36.005C28.4802 36.005 30.3826 36.1178 31.166 35.6666C31.166 35.6666 29.5993 36.7382 27.417 37.1893C27.417 37.1893 28.7599 37.6405 29.935 37.3021C29.935 37.3021 28.3683 38.1481 26.0741 38.3737C26.0741 38.3737 27.6409 38.8249 28.8719 38.3737C28.8719 38.3737 25.8503 40.8552 25.3467 42.2087C25.011 43.0547 25.5706 43.6187 25.5706 43.6187C25.5706 43.6187 25.067 43.7315 24.8432 43.5059C24.8432 43.5059 24.7312 44.3518 24.9551 44.4646C24.9551 44.4646 24.3396 44.5774 24.1158 44.239C24.1158 44.239 24.3396 44.9722 24.8432 45.085C25.3467 45.1978 25.2348 45.8182 24.8432 46.3822C24.8432 46.3822 24.8432 45.5362 24.5074 45.5362C24.1717 45.5362 24.1717 46.9461 24.3955 47.0589C24.6193 47.1717 25.011 47.0589 25.011 47.0589C25.011 47.0589 24.7312 47.7357 24.0038 47.5101C23.2764 47.2845 23.4443 46.1566 23.4443 46.1566C23.4443 46.1566 23.0526 46.2694 22.7729 46.5513C22.7729 46.5513 22.2693 47.3409 22.9407 47.8485C22.9407 47.8485 22.0455 47.9049 21.9895 47.0025C21.9335 45.931 22.3252 45.5926 22.7169 45.4234C23.1086 45.1978 23.2205 45.1978 23.2205 45.1978C23.2205 45.1978 23.3324 44.5774 22.8848 44.239C22.4371 43.9007 21.5419 43.3931 21.318 43.5059C21.0942 43.6187 20.8145 44.239 20.9264 44.4646C20.9264 44.4646 21.43 44.4646 21.318 44.9722C21.2061 45.4798 20.7026 45.4798 20.7026 45.4798C20.7026 45.4798 20.9264 45.1414 20.8145 44.9722C20.7026 44.803 20.3109 44.7466 20.3109 45.4234C20.3109 46.1002 20.9264 45.8746 20.9264 45.8746C20.9264 45.8746 20.4787 46.7769 19.8073 46.1566C19.8073 46.1566 19.5835 46.3822 19.9192 46.6641C19.9192 46.6641 18.8561 46.8897 18.8001 45.4234C18.7442 44.2954 19.9192 44.1826 19.9192 44.1826C19.9192 44.1826 19.8632 43.6187 19.7513 43.5059C19.6394 43.3931 17.3453 44.239 15.275 43.3931C13.2047 42.5471 12.6452 41.8703 12.0297 41.8703C11.4142 41.8703 9.95937 42.1523 9.79151 42.4907Z" fill="white"/>
<path d="M22.437 46.1563C22.437 46.1563 21.8775 46.2691 21.9894 46.9459C22.0454 47.3407 22.8847 47.9047 23.1085 47.2843C23.1085 47.2843 22.6609 47.4535 22.5489 46.6075C22.5489 45.9871 22.437 46.1563 22.437 46.1563Z" fill="white"/>
<path d="M55.4501 39.2197L57.3526 38.7685V18.4653H53.7156C53.7156 19.7625 53.3798 20.9468 52.7084 22.1312C52.4286 22.6388 52.0929 23.0336 51.7012 23.3155H50.75V17.6758H69.047V23.3719H68.0958C67.7041 23.0336 67.3684 22.6388 67.0886 22.1876C66.4171 21.0596 66.0814 19.8189 66.0814 18.5217H62.5004V38.8249L64.4028 39.2761V39.7273H55.4501V39.2197Z" fill="black"/>
<path d="M71.3965 39.2197L73.2989 38.7685V18.5781L71.3965 18.127V17.6758H80.1253C83.5945 17.6758 86.0565 18.2398 87.5672 19.3677C89.078 20.4957 89.8054 22.1876 89.8054 24.4435C89.8054 26.643 89.078 28.3349 87.5672 29.5193C86.0565 30.6472 83.5945 31.2112 80.1253 31.2112H78.3907V38.7685L80.2932 39.2197V39.6709H71.3965V39.2197ZM80.1253 30.4216C81.4123 30.4216 82.4754 29.9141 83.3147 28.8989C84.0981 27.8838 84.4897 26.4174 84.4897 24.4435C84.4897 22.4696 84.0981 21.0032 83.3147 19.9881C82.5313 18.9729 81.4682 18.4653 80.1253 18.4653H78.3907V30.4216H80.1253Z" fill="black"/>
<path d="M92.4355 39.7273V39.2761L94.338 38.8249V18.5781L92.4355 18.127V17.6758H101.332V18.127L99.4858 18.5781V34.4823L106.816 20.9468V18.5781L104.913 18.127V17.6758H113.81V18.127L111.964 18.5781V38.7121L113.81 39.1633V39.6145H104.913V39.1633L106.816 38.7121V22.8644L99.4858 36.3998V38.7685L101.332 39.2197V39.6709H92.4355V39.7273Z" fill="black"/>
<path d="M120.189 39.3886C119.63 38.881 119.294 38.2043 119.294 37.3583C119.294 36.5687 119.518 35.892 120.022 35.4408C120.525 34.9332 121.085 34.7076 121.812 34.7076C121.98 34.7076 122.148 34.7076 122.316 34.764C122.484 34.8204 122.596 34.8204 122.651 34.8204L123.043 34.8768V39.2758C124.106 39.1066 125.169 37.8095 126.177 35.328L116.664 18.6343L115.098 18.1831V17.7319H119.182C120.189 17.7319 121.029 17.9575 121.7 18.4651C122.372 18.9163 122.931 19.5931 123.435 20.439L128.695 29.6882L133.283 19.1983L130.933 18.2395V17.7883H136.696V18.2395L134.178 19.1983L127.128 35.4408C126.4 37.1891 125.673 38.4299 124.89 39.163C124.162 39.9526 123.323 40.291 122.428 40.291C121.532 40.1782 120.805 39.8962 120.189 39.3886Z" fill="black"/>
<path d="M140.444 21.5672V38.2609L142.962 39.2197V39.6709H137.031V39.2197L139.549 38.2609V18.5781L137.367 18.127V17.6758H141.564C142.627 17.6758 143.522 17.9014 144.137 18.3526C144.753 18.8037 145.312 19.4805 145.76 20.3265L152.586 33.4671L157.79 20.3265C158.126 19.4241 158.63 18.7473 159.245 18.2962C159.861 17.845 160.756 17.6758 162.043 17.6758H165.344V18.127L163.498 18.5781V38.7121L165.344 39.1633V39.6145H156.447V39.1633L158.35 38.7121V21.5672L151.02 40.0092H149.957L140.444 21.5672Z" fill="black"/>
<path d="M176.367 39.2194L178.27 38.7683V37.0199C175.975 36.9071 174.073 36.456 172.45 35.6664C170.828 34.8768 169.597 33.8617 168.757 32.5645C167.918 31.2674 167.526 29.8574 167.526 28.3347C167.526 26.812 167.918 25.3456 168.757 24.1049C169.597 22.8077 170.828 21.7926 172.45 21.003C174.073 20.2134 176.031 19.7623 178.27 19.6495V18.0703L176.367 17.6191V17.168H185.264V17.6191L183.361 18.0703V19.6495C185.656 19.7623 187.558 20.2134 189.181 21.003C190.803 21.7926 192.034 22.8077 192.874 24.1049C193.713 25.402 194.105 26.812 194.105 28.3347C194.105 29.8574 193.713 31.3238 192.874 32.5645C192.034 33.8617 190.803 34.8768 189.181 35.6664C187.558 36.456 185.6 36.9071 183.361 37.0199V38.7683L185.264 39.2194V39.6706H176.367V39.2194ZM178.214 20.3262C176.703 20.4954 175.416 21.285 174.409 22.6385C173.402 23.9921 172.898 25.9096 172.898 28.3347C172.898 30.7598 173.402 32.6773 174.409 34.0309C175.416 35.3844 176.703 36.174 178.214 36.3432V20.3262ZM187.166 34.0873C188.173 32.7337 188.677 30.8162 188.677 28.3911C188.677 25.966 188.173 24.0485 187.166 22.6949C186.159 21.3414 184.872 20.5518 183.361 20.3826V36.456C184.928 36.2304 186.159 35.4408 187.166 34.0873Z" fill="black"/>
<path d="M55.5619 55.4059V53.714H51.4213V55.4059H50.0225V52.4733H50.526C51.3094 51.4581 51.5892 50.0482 51.5892 48.1306V47.1719H56.2334V52.5297H56.9608V55.4623H55.5619V55.4059ZM54.7786 48.2998H52.988V48.4126C52.988 50.2173 52.7083 51.4017 52.0928 52.4733H54.7786V48.2998Z" fill="#D3AA50"/>
<path d="M63.619 48.3562H60.1498V49.7662H63.3392V50.8941H60.1498V52.5297H63.6749V53.714H58.751V47.1719H63.6749V48.3562H63.619Z" fill="#D3AA50"/>
<path d="M70.5581 48.3562H68.5997V53.714H67.1449V48.3562H65.1865V47.1719H70.5581V48.3562Z" fill="#D3AA50"/>
<path d="M77.216 48.3562H73.7468V49.7662H76.9362V50.8941H73.7468V52.5297H77.2719V53.714H72.292V47.1719H77.216V48.3562Z" fill="#D3AA50"/>
<path d="M82.5322 49.7662L85.3299 53.7704H83.5393L81.5809 50.8377L80.7416 51.6837V53.8268H79.3428V47.1719H80.7416V49.9354L83.3155 47.1719H85.106L82.5322 49.7662Z" fill="#D3AA50"/>
<path d="M91.7642 48.3562H89.8058V53.714H88.351V48.3562H86.3926V47.1719H91.7642V48.3562Z" fill="#D3AA50"/>
<path d="M99.0385 53.7138H97.5837V49.1455L95.1217 53.7138H93.499V47.1716H94.9538V51.6834L97.4158 47.1152H99.0385V53.7138Z" fill="#D3AA50"/>
<path d="M104.41 47.1719C105.529 47.1719 106.48 47.6795 106.48 48.8074C106.48 49.4278 106.144 49.9354 105.585 50.161C106.256 50.3301 106.76 50.8377 106.76 51.7965C106.76 53.0936 105.753 53.7704 104.522 53.7704H101.276V47.1719H104.41ZM102.675 49.8226H103.962C104.466 49.8226 105.025 49.7098 105.025 49.033C105.025 48.3562 104.466 48.2434 103.962 48.2434H102.675V49.8226ZM102.675 52.586H104.13C104.746 52.586 105.361 52.4733 105.361 51.6837C105.361 50.8941 104.746 50.7813 104.074 50.7813H102.731V52.586H102.675Z" fill="#D3AA50"/>
<path d="M114.314 53.714H112.859V50.8941H110.229V53.714H108.774V47.1719H110.229V49.6534H112.915V47.1719H114.37V53.714H114.314Z" fill="#D3AA50"/>
<path d="M122.707 50.4427C122.707 52.473 121.42 53.883 119.518 53.883C117.559 53.883 116.272 52.5294 116.272 50.4427C116.272 48.356 117.559 47.0024 119.518 47.0024C121.42 47.0024 122.707 48.4124 122.707 50.4427ZM117.727 50.4427C117.727 51.8526 118.399 52.6986 119.518 52.6986C120.581 52.6986 121.252 51.8526 121.252 50.4427C121.252 49.0328 120.581 48.1868 119.462 48.1868C118.455 48.1868 117.727 49.0328 117.727 50.4427Z" fill="#D3AA50"/>
<path d="M129.646 48.3562H126.176V49.7662H129.366V50.8941H126.176V52.5297H129.702V53.714H124.722V47.1719H129.646V48.3562Z" fill="#D3AA50"/>
<path d="M144.528 53.7138H143.018L142.514 52.2474H140.108L139.549 53.7138H138.094L140.556 47.1152H142.011L144.528 53.7138ZM141.283 48.7508L140.388 51.1759H142.122L141.283 48.7508Z" fill="#D3AA50"/>
<path d="M150.628 48.3562H147.495V53.714H146.04V47.1719H150.572V48.3562H150.628Z" fill="#D3AA50"/>
<path d="M157.231 48.3562H153.761V49.7662H156.951V50.8941H153.761V52.5297H157.287V53.714H152.307V47.1719H157.231V48.3562Z" fill="#D3AA50"/>
<path d="M164.84 53.714H163.385V50.8941H160.699V53.714H159.244V47.1719H160.699V49.6534H163.385V47.1719H164.84V53.714Z" fill="#D3AA50"/>
<path d="M170.044 53.883C168.141 53.883 166.91 52.5294 166.91 50.4427C166.91 48.5252 168.141 47.0024 170.1 47.0024C171.666 47.0024 172.841 48.0176 172.897 49.3711H171.498C171.331 48.638 170.827 48.2432 170.044 48.2432C168.813 48.2432 168.309 49.3711 168.309 50.4991C168.309 51.8526 168.98 52.6986 170.044 52.6986C170.883 52.6986 171.442 52.191 171.554 51.2323H172.953C172.785 52.8114 171.834 53.883 170.044 53.883Z" fill="#D3AA50"/>
<path d="M179.612 48.3562H177.653V53.714H176.199V48.3562H174.24V47.1719H179.612V48.3562Z" fill="#D3AA50"/>
<path d="M184.48 47.1719C185.599 47.1719 186.55 47.6795 186.55 48.8074C186.55 49.4278 186.215 49.9354 185.655 50.161C186.327 50.3301 186.83 50.8377 186.83 51.7965C186.83 53.0936 185.823 53.7704 184.592 53.7704H181.347V47.1719H184.48ZM182.746 49.8226H184.032C184.536 49.8226 185.096 49.7098 185.096 49.033C185.096 48.3562 184.536 48.2434 184.032 48.2434H182.746V49.8226ZM182.746 52.586H184.2C184.816 52.586 185.431 52.4733 185.431 51.6837C185.431 50.8941 184.816 50.7813 184.144 50.7813H182.801V52.586H182.746Z" fill="#D3AA50"/>
<path d="M194.999 50.4427C194.999 52.473 193.712 53.883 191.81 53.883C189.851 53.883 188.564 52.5294 188.564 50.4427C188.564 48.356 189.851 47.0024 191.81 47.0024C193.712 47.0024 194.999 48.4124 194.999 50.4427ZM190.019 50.4427C190.019 51.8526 190.691 52.6986 191.81 52.6986C192.873 52.6986 193.544 51.8526 193.544 50.4427C193.544 49.0328 192.873 48.1868 191.754 48.1868C190.691 48.1868 190.019 49.0328 190.019 50.4427Z" fill="#D3AA50"/>
</g>
<defs>
<linearGradient id="paint0_linear_252_55106" x1="-0.000241227" y1="34.9323" x2="39.2454" y2="34.9323" gradientUnits="userSpaceOnUse">
<stop stop-color="#6D1127"/>
<stop offset="1" stop-color="#9A183B"/>
</linearGradient>
<clipPath id="clip0_252_55106">
<rect width="195" height="51.0963" fill="white" transform="translate(0 9.38525)"/>
</clipPath>
</defs>
</svg>
