<svg width="30" height="30" viewBox="0 0 30 30" fill="none" xmlns="http://www.w3.org/2000/svg">
<path d="M30 23.2676C30 26.9883 26.9824 30 23.2676 30H6.73242C3.01758 30 0 26.9824 0 23.2676V6.73242C0 3.01758 3.01758 0 6.73242 0H23.2676C26.9824 0 30 3.01758 30 6.73242V23.2676Z" fill="#678AAF"/>
<path d="M14.7955 20.4729H15.9498C15.9498 20.4729 16.3014 20.4319 16.4772 20.2444C16.6412 20.0686 16.6354 19.7346 16.6354 19.7346C16.6354 19.7346 16.6119 18.1819 17.3326 17.9533C18.0416 17.7248 18.9557 19.4533 19.9225 20.1154C20.6549 20.6194 21.2115 20.508 21.2115 20.508L23.7955 20.4729C23.7955 20.4729 25.149 20.3908 24.5045 19.3244C24.4518 19.2365 24.1295 18.5393 22.5826 17.1037C20.9654 15.6037 21.1822 15.844 23.1334 13.2424C24.3229 11.6604 24.7975 10.6936 24.651 10.2776C24.5104 9.88499 23.6373 9.99046 23.6373 9.99046L20.7252 10.008C20.7252 10.008 20.5084 9.97874 20.3502 10.0725C20.192 10.1662 20.0924 10.383 20.0924 10.383C20.0924 10.383 19.6295 11.6076 19.0143 12.6506C17.7193 14.8537 17.2037 14.9651 16.9869 14.8303C16.4947 14.508 16.6178 13.553 16.6178 12.8674C16.6178 10.7346 16.94 9.84984 15.985 9.61546C15.6686 9.53929 15.4342 9.48656 14.6256 9.4807C13.5885 9.46898 12.7096 9.48656 12.2115 9.72679C11.8834 9.89085 11.6256 10.2483 11.7779 10.2717C11.9713 10.2951 12.4049 10.3889 12.6393 10.7053C12.9381 11.1096 12.9264 12.0237 12.9264 12.0237C12.9264 12.0237 13.0963 14.5315 12.5279 14.8479C12.1354 15.0647 11.5963 14.6252 10.442 12.6272C9.8502 11.6076 9.40489 10.4768 9.40489 10.4768C9.40489 10.4768 9.317 10.2659 9.16465 10.1545C8.97715 10.0198 8.71934 9.97288 8.71934 9.97288L5.95372 9.99046C5.95372 9.99046 5.5377 10.0022 5.38536 10.1838C5.25059 10.342 5.37364 10.676 5.37364 10.676C5.37364 10.676 7.53575 15.7385 9.99083 18.2932C12.2408 20.6252 14.7955 20.4729 14.7955 20.4729Z" fill="white"/>
</svg>
