<svg width="24" height="24" viewBox="0 0 24 24" fill="none" xmlns="http://www.w3.org/2000/svg">
<path d="M12 24C18.6274 24 24 18.6274 24 12C24 5.37258 18.6274 0 12 0C5.37258 0 0 5.37258 0 12C0 18.6274 5.37258 24 12 24Z" fill="#25D366"/>
<path d="M17.3149 6.65443C15.9045 5.24256 14.0293 4.4648 12.0313 4.46387C7.91494 4.46387 4.56394 7.81412 4.56262 11.9322C4.56187 13.2488 4.90594 14.5337 5.55938 15.6659L4.5 19.5362L8.45906 18.4979C9.55013 19.0924 10.7783 19.4061 12.0283 19.4067H12.0315C16.1479 19.4067 19.4983 16.0559 19.5 11.938C19.5009 9.94262 18.7245 8.06612 17.3149 6.65443ZM12.0315 18.1452H12.0291C10.9148 18.1448 9.82238 17.8456 8.86913 17.2801L8.64244 17.1454L6.29306 17.7617L6.91988 15.4712L6.77231 15.2357C6.15075 14.2476 5.82244 13.1056 5.82319 11.9322C5.82431 8.50974 8.60925 5.72518 12.0334 5.72518C13.6916 5.72555 15.2499 6.37224 16.4222 7.5458C17.5943 8.71918 18.2393 10.2786 18.2389 11.9374C18.2378 15.3604 15.4528 18.1452 12.0315 18.1452ZM15.4365 13.4961C15.2498 13.4026 14.3323 12.9516 14.1611 12.8888C13.9899 12.8266 13.866 12.7956 13.7415 12.9824C13.617 13.1691 13.2594 13.5897 13.1503 13.7142C13.0416 13.8387 12.9328 13.8544 12.7461 13.7609C12.5593 13.6673 11.9582 13.4704 11.2459 12.8344C10.6909 12.34 10.3163 11.7284 10.2075 11.5416C10.0988 11.3549 10.1959 11.2542 10.2894 11.161C10.3734 11.0774 10.4762 10.9431 10.5694 10.834C10.6626 10.7249 10.6937 10.6471 10.7559 10.5227C10.8182 10.3982 10.7873 10.2893 10.7404 10.1959C10.6935 10.1024 10.3204 9.1838 10.1651 8.81012C10.0134 8.44618 9.85969 8.49549 9.74531 8.48987C9.63619 8.48462 9.51188 8.48312 9.38756 8.48312C9.26325 8.48312 9.06094 8.5298 8.88994 8.71674C8.71913 8.90349 8.23688 9.3548 8.23688 10.2737C8.23688 11.1921 8.9055 12.0797 8.99888 12.2041C9.09225 12.3284 10.3148 14.2137 12.1868 15.022C12.6319 15.214 12.9797 15.3289 13.2506 15.4152C13.6976 15.5575 14.1045 15.5371 14.4263 15.4891C14.7848 15.4356 15.5303 15.0377 15.6861 14.6018C15.8415 14.1661 15.8415 13.7926 15.7944 13.7146C15.7474 13.6364 15.6229 13.5897 15.4365 13.4961Z" fill="white"/>
</svg>
