<svg width="270" height="269" viewBox="0 0 270 269" fill="none" xmlns="http://www.w3.org/2000/svg">
<g opacity="0.4">
<path d="M239.512 254.541L167.512 182.808C149.377 196.728 126.599 203.24 103.815 201.018C81.0305 198.796 59.9525 188.007 44.8714 170.847C29.7903 153.686 21.8397 131.445 22.6382 108.651C23.4366 85.8562 32.924 64.2214 49.1691 48.1505C65.4142 32.0795 87.1958 22.7804 110.08 22.146C132.965 21.5117 155.232 29.5898 172.349 44.7359C189.465 59.8821 200.146 80.9578 202.215 103.673C204.284 126.388 197.587 149.035 183.487 167.004L255.487 238.737L239.512 254.541ZM112.5 44.8333C99.1496 44.8333 86.0991 48.7774 74.9988 56.1669C63.8985 63.5565 55.2469 74.0595 50.1379 86.3478C45.029 98.6361 43.6923 112.158 46.2968 125.203C48.9013 138.248 55.33 150.231 64.7701 159.636C74.2101 169.041 86.2375 175.446 99.3312 178.041C112.425 180.636 125.997 179.304 138.331 174.214C150.665 169.124 161.207 160.505 168.624 149.445C176.041 138.386 180 125.384 180 112.083C180 94.2475 172.888 77.1422 160.23 64.5303C147.571 51.9185 130.402 44.8333 112.5 44.8333Z" fill="#D2A951"/>
<path d="M112.5 78.4583C114.881 78.4498 117.203 79.194 119.132 80.5839C121.062 81.9738 122.499 83.9377 123.236 86.1929C123.974 88.4481 123.975 90.8784 123.238 93.134C122.502 95.3897 121.066 97.3544 119.138 98.7454C113.759 102.417 109.333 107.309 106.223 113.019C103.113 118.728 101.409 125.092 101.25 131.586V134.5H123.75V131.586C123.943 128.619 124.827 125.738 126.33 123.171C127.834 120.603 129.916 118.419 132.413 116.791C137.073 113.398 140.782 108.871 143.185 103.643C145.588 98.4151 146.606 92.6602 146.14 86.9286C145.674 81.197 143.741 75.6801 140.525 70.9052C137.309 66.1303 132.917 62.257 127.77 59.6553C122.623 57.0536 116.892 55.8105 111.125 56.0448C105.358 56.2791 99.7476 57.983 94.8301 60.9936C89.9126 64.0042 85.8522 68.221 83.037 73.2409C80.2218 78.2609 78.7458 83.9162 78.75 89.6666H101.25C101.25 86.694 102.435 83.8431 104.545 81.7411C106.655 79.6392 109.516 78.4583 112.5 78.4583Z" fill="#D2A951"/>
<path d="M123.75 145.708H101.25V168.125H123.75V145.708Z" fill="#D2A951"/>
</g>
</svg>
